<?xml version="1.0" encoding="UTF-8"?>
<svg version="1.1" xmlns="http://www.w3.org/2000/svg" width="2048" height="2048">
<path d="M0 0 C2.57094948 -0.00479014 5.14189618 -0.01132719 7.71283734 -0.0194332 C13.28018252 -0.03419159 18.84737426 -0.03439335 24.41472831 -0.02465422 C32.74940379 -0.01014666 41.08394885 -0.01895716 49.41862101 -0.03201692 C63.62972744 -0.05360777 77.84078074 -0.05635197 92.05189896 -0.04862022 C106.44241829 -0.04085355 120.83289807 -0.04180007 135.22341537 -0.05323982 C136.13424986 -0.05395747 137.04508434 -0.05467513 137.98351987 -0.05541452 C141.6935757 -0.05836454 145.40363147 -0.06137335 149.11368719 -0.06445746 C186.7294823 -0.09568955 224.34525024 -0.10108941 261.96105601 -0.09614533 C267.15473096 -0.0954684 272.34840592 -0.09482421 277.54208088 -0.09421396 C278.57375557 -0.09409188 279.60543025 -0.09396979 280.66836781 -0.093844 C303.55559177 -0.09129767 326.44281202 -0.09650766 349.33003488 -0.1032661 C354.55976053 -0.1048076 359.7894862 -0.10629707 365.01921187 -0.10779613 C367.11821067 -0.10839951 369.21720946 -0.10900328 371.31620825 -0.10960741 C372.87689395 -0.11005645 372.87689395 -0.11005645 374.46910864 -0.11051456 C376.57371728 -0.11112163 378.67832593 -0.11173099 380.78293457 -0.11234265 C440.48638341 -0.12968444 500.18982897 -0.13897975 559.89328003 -0.13044739 C561.55089099 -0.13021322 561.55089099 -0.13021322 563.24198904 -0.12997432 C575.56403104 -0.1282288 587.88607303 -0.12637027 600.20811501 -0.12447305 C601.32055934 -0.12430203 602.43300367 -0.12413101 603.57915844 -0.12395481 C612.82116807 -0.12253344 612.82116807 -0.12253344 617.07555203 -0.12187036 C688.21080284 -0.110802 759.34600171 -0.1258757 830.48124313 -0.16341209 C848.4025242 -0.17285706 866.3238053 -0.18221832 884.24508667 -0.19108582 C885.3486746 -0.19163246 886.45226254 -0.1921791 887.58929253 -0.19274231 C921.6220971 -0.20949429 955.65489734 -0.21884512 989.68770599 -0.22050095 C990.75675713 -0.22055368 991.82580827 -0.22060641 992.92725489 -0.22066074 C1016.39955782 -0.22174249 1039.8718604 -0.22099698 1063.34416322 -0.21858131 C1071.74373458 -0.21773012 1080.14330595 -0.21699985 1088.54287732 -0.21632243 C1090.63235348 -0.21615183 1092.72182964 -0.21597396 1094.8113058 -0.21578879 C1128.05392812 -0.21289571 1161.29651506 -0.22711496 1194.53912889 -0.24979671 C1228.96992256 -0.27313699 1263.40065328 -0.27418033 1297.83144727 -0.25010987 C1301.53611855 -0.24760641 1305.24078988 -0.24519941 1308.94546127 -0.24286842 C1309.85460194 -0.24228784 1310.7637426 -0.24170725 1311.70043298 -0.24110907 C1326.04125013 -0.23249001 1340.38197716 -0.24386427 1354.72278014 -0.26374881 C1368.85652647 -0.28291892 1382.99013505 -0.28034578 1397.12387356 -0.25533636 C1404.67076033 -0.24255715 1412.21735045 -0.23888778 1419.76421753 -0.26306303 C1485.74780182 -0.46342662 1485.74780182 -0.46342662 1514.74923237 8.8837715 C1516.94733284 9.53088008 1519.11330192 9.94919888 1521.3728447 10.32145119 C1537.85283465 13.45187314 1554.48794939 20.58015533 1569.3103447 28.20816994 C1571.2953091 29.21578144 1573.32676827 30.13206129 1575.3728447 31.00895119 C1580.65603829 33.27317701 1585.74549238 35.91487571 1590.8728447 38.50895119 C1592.87238109 39.50987786 1594.87225052 40.51014042 1596.8728447 41.50895119 C1596.8728447 42.16895119 1596.8728447 42.82895119 1596.8728447 43.50895119 C1597.7597197 43.75645119 1598.6465947 44.00395119 1599.5603447 44.25895119 C1603.04214955 45.57283981 1605.02709652 47.14906246 1607.8728447 49.50895119 C1609.58569925 50.49225658 1611.29905592 51.47492688 1613.02518845 52.43473244 C1616.15861898 54.25649437 1619.00695191 56.28642209 1621.8728447 58.50895119 C1621.8728447 59.16895119 1621.8728447 59.82895119 1621.8728447 60.50895119 C1622.7700322 60.66363869 1622.7700322 60.66363869 1623.6853447 60.82145119 C1626.18822193 61.60806975 1627.08599224 62.6444095 1628.8728447 64.50895119 C1629.8628447 64.83895119 1630.8528447 65.16895119 1631.8728447 65.50895119 C1632.99399969 66.63010618 1634.11051438 67.75635252 1635.2009697 68.90738869 C1638.2000085 71.78029969 1641.56332445 74.22153646 1644.86112595 76.73941994 C1645.85692673 77.61533791 1645.85692673 77.61533791 1646.8728447 78.50895119 C1646.8728447 79.16895119 1646.8728447 79.82895119 1646.8728447 80.50895119 C1647.8319072 80.91113869 1647.8319072 80.91113869 1648.8103447 81.32145119 C1650.8728447 82.50895119 1650.8728447 82.50895119 1651.8728447 85.50895119 C1652.5328447 85.83895119 1653.1928447 86.16895119 1653.8728447 86.50895119 C1654.5328447 86.83895119 1655.1928447 87.16895119 1655.8728447 87.50895119 C1656.2028447 88.49895119 1656.5328447 89.48895119 1656.8728447 90.50895119 C1657.5328447 90.83895119 1658.1928447 91.16895119 1658.8728447 91.50895119 C1659.5328447 91.83895119 1660.1928447 92.16895119 1660.8728447 92.50895119 C1661.2028447 93.49895119 1661.5328447 94.48895119 1661.8728447 95.50895119 C1662.5328447 95.83895119 1663.1928447 96.16895119 1663.8728447 96.50895119 C1664.5328447 96.83895119 1665.1928447 97.16895119 1665.8728447 97.50895119 C1666.2028447 98.49895119 1666.5328447 99.48895119 1666.8728447 100.50895119 C1667.5328447 100.50895119 1668.1928447 100.50895119 1668.8728447 100.50895119 C1670.39025446 102.20798142 1671.8379727 103.96967842 1673.2478447 105.75895119 C1675.98060241 109.21374188 1678.75428763 112.40383618 1681.8728447 115.50895119 C1682.89589418 117.16156958 1683.89900523 118.82686484 1684.8728447 120.50895119 C1685.5328447 121.16895119 1686.1928447 121.82895119 1686.8728447 122.50895119 C1686.8728447 123.49895119 1686.8728447 124.48895119 1686.8728447 125.50895119 C1687.8628447 125.83895119 1688.8528447 126.16895119 1689.8728447 126.50895119 C1694.17495276 131.71939298 1697.62786512 137.59845267 1700.8728447 143.50895119 C1701.4503447 144.43707619 1702.0278447 145.36520119 1702.6228447 146.32145119 C1703.8728447 148.50895119 1703.8728447 148.50895119 1703.8728447 150.50895119 C1704.5328447 150.50895119 1705.1928447 150.50895119 1705.8728447 150.50895119 C1707.06737649 152.89801477 1708.26168118 155.28718812 1709.45487595 157.67691994 C1710.32302386 159.41082418 1711.1945978 161.14302489 1712.07206345 162.87223244 C1715.84815246 170.33659444 1719.37257781 177.91244872 1722.8728447 185.50895119 C1723.25569626 186.33524025 1723.63854782 187.16152931 1724.03300095 188.01285744 C1733.04469088 207.82398147 1738.69484959 228.69129307 1742.43491101 250.07674993 C1742.89140453 252.61202902 1743.38318819 255.13899871 1743.87643626 257.66736691 C1746.72673055 272.78776516 1747.44208127 287.36766415 1747.38179588 302.72512627 C1747.38658684 305.29352777 1747.39312441 307.86192649 1747.40122908 310.43031967 C1747.41597853 315.98897125 1747.41619444 321.54746912 1747.40645011 327.10612956 C1747.39193483 335.42778953 1747.4007574 343.749319 1747.41381281 352.07097567 C1747.43539739 366.26033153 1747.43814971 380.44963418 1747.43041611 394.63900185 C1747.42264811 409.0065262 1747.42359803 423.37401095 1747.43503571 437.74153328 C1747.43575336 438.65107609 1747.43647101 439.56061891 1747.43721041 440.49772362 C1747.44016044 444.20254763 1747.44316925 447.90737158 1747.44625334 451.61219548 C1747.47748148 489.17042589 1747.48288573 526.72862907 1747.47794121 564.28687014 C1747.47726428 569.47217727 1747.47662009 574.65748441 1747.47600985 579.84279156 C1747.47582672 581.38782062 1747.47582672 581.38782062 1747.47563989 582.96406239 C1747.47309331 605.81678724 1747.47830397 628.66950836 1747.48506198 651.52223211 C1747.48660348 656.74441713 1747.48809296 661.96660217 1747.48959201 667.18878721 C1747.4901954 669.28476701 1747.49079916 671.38074682 1747.49140329 673.47672662 C1747.49170265 674.51568891 1747.49200201 675.55465121 1747.49231044 676.62509721 C1747.49291751 678.72668661 1747.49352688 680.82827602 1747.49413853 682.92986543 C1747.51147973 742.5457116 1747.52077607 802.16155449 1747.51224327 861.77740288 C1747.51208716 862.88079933 1747.51193104 863.98419578 1747.5117702 865.12102849 C1747.51002469 877.42430221 1747.50816616 889.72757591 1747.50626893 902.03084961 C1747.50609791 903.14159475 1747.5059269 904.25233989 1747.5057507 905.39674397 C1747.50432934 914.62451704 1747.50432934 914.62451704 1747.50366624 918.87251816 C1747.49259793 989.89881057 1747.5076717 1060.92505098 1747.54520798 1131.951334 C1747.55465298 1149.84528149 1747.56401426 1167.73922901 1747.5728817 1185.6331768 C1747.57342834 1186.73508883 1747.57397499 1187.83700085 1747.5745382 1188.97230415 C1747.59129075 1222.9546165 1747.60064106 1256.93692451 1747.60229683 1290.91924095 C1747.60234956 1291.98673957 1747.6024023 1293.05423818 1747.60245663 1294.15408524 C1747.60353839 1317.59253876 1747.60279284 1341.03099193 1747.6003772 1364.46944534 C1747.59952601 1372.8569411 1747.59879574 1381.24443687 1747.59811832 1389.63193265 C1747.59794771 1391.71839562 1747.59776984 1393.80485858 1747.59758468 1395.89132155 C1747.59469187 1429.08271291 1747.60890898 1462.27406883 1747.6315926 1495.46545168 C1747.65493539 1529.84406403 1747.65597347 1564.22261333 1747.63190575 1598.601226 C1747.6294023 1602.3006694 1747.62699531 1606.00011284 1747.62466431 1609.69955635 C1747.62408372 1610.60741108 1747.62350313 1611.51526581 1747.62290495 1612.45063128 C1747.61428762 1626.76820294 1747.62565711 1641.08568432 1747.64554469 1655.40324179 C1747.66472001 1669.51582088 1747.66213481 1683.62826203 1747.63713224 1697.74083331 C1747.62435762 1705.27567089 1747.62067144 1712.81021144 1747.64485891 1720.34502926 C1747.84939485 1787.56293907 1747.84939485 1787.56293907 1738.49802438 1816.40283437 C1737.84734796 1818.59484507 1737.43147773 1820.75414762 1737.0603447 1823.00895119 C1733.92992274 1839.48894114 1726.80164055 1856.12405588 1719.17362595 1870.94645119 C1718.16601444 1872.9314156 1717.24973459 1874.96287476 1716.3728447 1877.00895119 C1714.10861887 1882.29214478 1711.46692018 1887.38159887 1708.8728447 1892.50895119 C1707.87191802 1894.50848758 1706.87165546 1896.50835701 1705.8728447 1898.50895119 C1705.2128447 1898.50895119 1704.5528447 1898.50895119 1703.8728447 1898.50895119 C1703.5015947 1899.83926369 1703.5015947 1899.83926369 1703.1228447 1901.19645119 C1701.81554786 1904.66078781 1700.24751231 1906.70252582 1697.8728447 1909.50895119 C1696.85932806 1911.16743296 1695.86163674 1912.8356108 1694.8728447 1914.50895119 C1693.86435375 1916.12090572 1692.84247206 1917.72452774 1691.8103447 1919.32145119 C1691.30374313 1920.1116465 1690.79714157 1920.90184181 1690.27518845 1921.71598244 C1689.81241501 1922.30766212 1689.34964157 1922.89934181 1688.8728447 1923.50895119 C1688.2128447 1923.50895119 1687.5528447 1923.50895119 1686.8728447 1923.50895119 C1686.7697197 1924.10707619 1686.6665947 1924.70520119 1686.5603447 1925.32145119 C1685.77372614 1927.82432842 1684.73738638 1928.72209874 1682.8728447 1930.50895119 C1682.5428447 1931.49895119 1682.2128447 1932.48895119 1681.8728447 1933.50895119 C1680.7516897 1934.63010618 1679.62544336 1935.74662087 1678.4744072 1936.83707619 C1675.60149619 1939.83611499 1673.16025943 1943.19943094 1670.64237595 1946.49723244 C1670.05843063 1947.16109962 1669.47448532 1947.82496681 1668.8728447 1948.50895119 C1668.2128447 1948.50895119 1667.5528447 1948.50895119 1666.8728447 1948.50895119 C1666.4706572 1949.46801369 1666.4706572 1949.46801369 1666.0603447 1950.44645119 C1664.8728447 1952.50895119 1664.8728447 1952.50895119 1661.8728447 1953.50895119 C1661.5428447 1954.16895119 1661.2128447 1954.82895119 1660.8728447 1955.50895119 C1660.5428447 1956.16895119 1660.2128447 1956.82895119 1659.8728447 1957.50895119 C1658.8828447 1957.83895119 1657.8928447 1958.16895119 1656.8728447 1958.50895119 C1656.5428447 1959.16895119 1656.2128447 1959.82895119 1655.8728447 1960.50895119 C1655.5428447 1961.16895119 1655.2128447 1961.82895119 1654.8728447 1962.50895119 C1653.8828447 1962.83895119 1652.8928447 1963.16895119 1651.8728447 1963.50895119 C1651.5428447 1964.16895119 1651.2128447 1964.82895119 1650.8728447 1965.50895119 C1650.5428447 1966.16895119 1650.2128447 1966.82895119 1649.8728447 1967.50895119 C1648.8828447 1967.83895119 1647.8928447 1968.16895119 1646.8728447 1968.50895119 C1646.8728447 1969.16895119 1646.8728447 1969.82895119 1646.8728447 1970.50895119 C1645.17381446 1972.02636095 1643.41211747 1973.47407919 1641.6228447 1974.88395119 C1638.16805401 1977.6167089 1634.97795971 1980.39039412 1631.8728447 1983.50895119 C1630.22022631 1984.53200067 1628.55493104 1985.53511172 1626.8728447 1986.50895119 C1626.2128447 1987.16895119 1625.5528447 1987.82895119 1624.8728447 1988.50895119 C1623.8828447 1988.50895119 1622.8928447 1988.50895119 1621.8728447 1988.50895119 C1621.5428447 1989.49895119 1621.2128447 1990.48895119 1620.8728447 1991.50895119 C1619.2634697 1992.83316994 1619.2634697 1992.83316994 1617.1228447 1994.19645119 C1616.32233688 1994.708209 1615.52182907 1995.21996681 1614.69706345 1995.74723244 C1613.76507126 1996.32859962 1612.83307907 1996.90996681 1611.8728447 1997.50895119 C1610.7334389 1998.23147676 1609.59412009 1998.95413952 1608.45487595 1999.67691994 C1599.17191583 2005.50895119 1599.17191583 2005.50895119 1596.8728447 2005.50895119 C1596.8728447 2006.16895119 1596.8728447 2006.82895119 1596.8728447 2007.50895119 C1594.48378112 2008.70348298 1592.09460776 2009.89778767 1589.70487595 2011.09098244 C1587.97097171 2011.95913035 1586.23877099 2012.83070429 1584.50956345 2013.70816994 C1577.04520145 2017.48425895 1569.46934717 2021.0086843 1561.8728447 2024.50895119 C1561.04655563 2024.89180275 1560.22026657 2025.27465431 1559.36893845 2025.66910744 C1539.55781442 2034.68079737 1518.69050281 2040.33095609 1497.30504595 2044.0710175 C1494.76976686 2044.52751102 1492.24279717 2045.01929468 1489.71442898 2045.51254275 C1474.59403072 2048.36283704 1460.01413173 2049.07818776 1444.65666962 2049.01790237 C1442.08826812 2049.02269333 1439.5198694 2049.0292309 1436.95147622 2049.03733557 C1431.39282463 2049.05208503 1425.83432677 2049.05230093 1420.27566633 2049.0425566 C1411.95400635 2049.02804132 1403.63247688 2049.03686389 1395.31082022 2049.0499193 C1381.12146435 2049.07150388 1366.9321617 2049.0742562 1352.74279404 2049.0665226 C1338.37526968 2049.0587546 1324.00778494 2049.05970452 1309.6402626 2049.0711422 C1308.73071979 2049.07185985 1307.82117698 2049.0725775 1306.88407226 2049.0733169 C1303.17924825 2049.07626693 1299.4744243 2049.07927574 1295.7696004 2049.08235983 C1258.21137 2049.11358797 1220.65316682 2049.11899222 1183.09492575 2049.11404771 C1177.90961861 2049.11337077 1172.72431147 2049.11272658 1167.53900433 2049.11211634 C1166.50898495 2049.11199425 1165.47896558 2049.11187216 1164.41773349 2049.11174638 C1141.56500864 2049.1091998 1118.71228752 2049.11441046 1095.85956378 2049.12116847 C1090.63737875 2049.12270997 1085.41519371 2049.12419945 1080.19300868 2049.1256985 C1078.09702887 2049.12630189 1076.00104907 2049.12690565 1073.90506926 2049.12750978 C1072.34662582 2049.12795882 1072.34662582 2049.12795882 1070.75669868 2049.12841694 C1068.65510927 2049.129024 1066.55351986 2049.12963337 1064.45193045 2049.13024502 C1004.83608428 2049.14758622 945.22024139 2049.15688256 885.60439301 2049.14834976 C884.50099655 2049.14819365 883.3976001 2049.14803753 882.2607674 2049.14787669 C869.95749368 2049.14613118 857.65421997 2049.14427265 845.35094628 2049.14237542 C843.68482857 2049.1421189 843.68482857 2049.1421189 841.98505191 2049.14185719 C832.75727885 2049.14043583 832.75727885 2049.14043583 828.50927773 2049.13977273 C757.48298531 2049.12870442 686.4567449 2049.14377819 615.43046188 2049.18131447 C597.53651439 2049.19075947 579.64256687 2049.20012075 561.74861908 2049.20898819 C560.64670706 2049.20953483 559.54479503 2049.21008148 558.40949173 2049.21064469 C524.42717939 2049.22739724 490.44487137 2049.23674755 456.46255493 2049.23840332 C454.86130701 2049.23848242 454.86130701 2049.23848242 453.22771064 2049.23856312 C429.78925712 2049.23964488 406.35080395 2049.23889933 382.91235054 2049.23648369 C374.52485478 2049.2356325 366.13735901 2049.23490223 357.74986323 2049.23422481 C355.66340027 2049.2340542 353.5769373 2049.23387633 351.49047433 2049.23369117 C318.29908297 2049.23079836 285.10772706 2049.24501547 251.9163442 2049.26769909 C217.53773185 2049.29104188 183.15918256 2049.29207996 148.78056988 2049.26801224 C145.08112649 2049.26550879 141.38168304 2049.2631018 137.68223953 2049.2607708 C136.7743848 2049.26019021 135.86653008 2049.25960962 134.9311646 2049.25901144 C120.61359294 2049.25039411 106.29611157 2049.2617636 91.97855409 2049.28165118 C77.86597501 2049.3008265 63.75353386 2049.29824131 49.64096258 2049.27323873 C42.10612499 2049.26046412 34.57158444 2049.25677793 27.03676662 2049.2809654 C-40.18114318 2049.48550134 -40.18114318 2049.48550134 -69.02103849 2040.13413087 C-71.21304919 2039.48345445 -73.37235174 2039.06758423 -75.6271553 2038.69645119 C-92.10384054 2035.56665697 -108.73756014 2028.4406295 -123.5568428 2020.81363869 C-126.68581473 2019.22537634 -129.89947948 2017.883702 -133.1271553 2016.50895119 C-136.47958693 2014.87983565 -139.80277552 2013.19440657 -143.1271553 2011.50895119 C-144.66832369 2010.73712211 -146.20994311 2009.9661925 -147.7521553 2009.19645119 C-148.8659053 2008.63957619 -149.9796553 2008.08270119 -151.1271553 2007.50895119 C-151.1271553 2006.84895119 -151.1271553 2006.18895119 -151.1271553 2005.50895119 C-152.0140303 2005.26145119 -152.9009053 2005.01395119 -153.8146553 2004.75895119 C-157.29646016 2003.44506256 -159.28140713 2001.86883992 -162.1271553 1999.50895119 C-163.84000986 1998.52564579 -165.55336652 1997.5429755 -167.27949905 1996.58316994 C-170.41292959 1994.761408 -173.26126252 1992.73148029 -176.1271553 1990.50895119 C-176.1271553 1989.84895119 -176.1271553 1989.18895119 -176.1271553 1988.50895119 C-176.7252803 1988.40582619 -177.3234053 1988.30270119 -177.9396553 1988.19645119 C-180.44253254 1987.40983263 -181.34030285 1986.37349288 -183.1271553 1984.50895119 C-184.1171553 1984.17895119 -185.1071553 1983.84895119 -186.1271553 1983.50895119 C-187.2483103 1982.38779619 -188.36482499 1981.26154985 -189.4552803 1980.11051369 C-192.45431911 1977.23760268 -195.81763505 1974.79636592 -199.11543655 1972.27848244 C-199.77930374 1971.69453712 -200.44317093 1971.11059181 -201.1271553 1970.50895119 C-201.1271553 1969.84895119 -201.1271553 1969.18895119 -201.1271553 1968.50895119 C-202.0862178 1968.10676369 -202.0862178 1968.10676369 -203.0646553 1967.69645119 C-205.1271553 1966.50895119 -205.1271553 1966.50895119 -206.1271553 1963.50895119 C-206.7871553 1963.17895119 -207.4471553 1962.84895119 -208.1271553 1962.50895119 C-210.1271553 1961.50895119 -210.1271553 1961.50895119 -211.1271553 1958.50895119 C-211.7871553 1958.17895119 -212.4471553 1957.84895119 -213.1271553 1957.50895119 C-215.1271553 1956.50895119 -215.1271553 1956.50895119 -216.1271553 1953.50895119 C-216.7871553 1953.17895119 -217.4471553 1952.84895119 -218.1271553 1952.50895119 C-220.1271553 1951.50895119 -220.1271553 1951.50895119 -221.1271553 1948.50895119 C-221.7871553 1948.50895119 -222.4471553 1948.50895119 -223.1271553 1948.50895119 C-224.64456506 1946.80992095 -226.0922833 1945.04822396 -227.5021553 1943.25895119 C-230.23491302 1939.8041605 -233.00859824 1936.6140662 -236.1271553 1933.50895119 C-237.15020478 1931.8563328 -238.15331584 1930.19103753 -239.1271553 1928.50895119 C-239.7871553 1927.84895119 -240.4471553 1927.18895119 -241.1271553 1926.50895119 C-241.1271553 1925.51895119 -241.1271553 1924.52895119 -241.1271553 1923.50895119 C-242.1171553 1923.17895119 -243.1071553 1922.84895119 -244.1271553 1922.50895119 C-248.42926337 1917.2985094 -251.88217572 1911.41944971 -255.1271553 1905.50895119 C-255.7046553 1904.58082619 -256.2821553 1903.65270119 -256.8771553 1902.69645119 C-258.1271553 1900.50895119 -258.1271553 1900.50895119 -258.1271553 1898.50895119 C-258.7871553 1898.50895119 -259.4471553 1898.50895119 -260.1271553 1898.50895119 C-261.32168709 1896.11988761 -262.51599179 1893.73071425 -263.70918655 1891.34098244 C-264.57733447 1889.6070782 -265.44890841 1887.87487749 -266.32637405 1886.14566994 C-270.10246307 1878.68130794 -273.62688842 1871.10545366 -277.1271553 1863.50895119 C-277.51000687 1862.68266212 -277.89285843 1861.85637306 -278.28731155 1861.00504494 C-286.96693182 1841.92393642 -292.68452375 1821.75710069 -296.29345004 1801.14004628 C-296.85767949 1797.93961105 -297.47905362 1794.7559705 -298.13074686 1791.57225938 C-301.0676499 1776.74711727 -301.69514639 1762.46211197 -301.63610649 1747.38179588 C-301.64089663 1744.81084641 -301.64743368 1742.23989971 -301.65553969 1739.66895854 C-301.67029809 1734.10161336 -301.67049984 1728.53442162 -301.66076072 1722.96706757 C-301.64625315 1714.63239209 -301.65506365 1706.29784703 -301.66812341 1697.96317487 C-301.68971426 1683.75206845 -301.69245846 1669.54101515 -301.68472672 1655.32989693 C-301.67696004 1640.9393776 -301.67790656 1626.54889782 -301.68934631 1612.15838051 C-301.69006396 1611.24754603 -301.69078162 1610.33671154 -301.69152101 1609.39827601 C-301.69447103 1605.68822019 -301.69747984 1601.97816441 -301.70056395 1598.26810869 C-301.73179604 1560.65231358 -301.7371959 1523.03654564 -301.73225182 1485.42073987 C-301.73157489 1480.22706492 -301.7309307 1475.03338997 -301.73032045 1469.839715 C-301.73019837 1468.80804032 -301.73007628 1467.77636563 -301.72995049 1466.71342807 C-301.72740416 1443.82620411 -301.73261415 1420.93898387 -301.73937259 1398.05176101 C-301.74091409 1392.82203535 -301.74240356 1387.59230968 -301.74390262 1382.36258401 C-301.74450601 1380.26358522 -301.74510977 1378.16458642 -301.7457139 1376.06558763 C-301.74601326 1375.0251305 -301.74631262 1373.98467337 -301.74662105 1372.91268724 C-301.74722812 1370.8080786 -301.74783748 1368.70346996 -301.74844914 1366.59886132 C-301.76579094 1306.89541247 -301.77508625 1247.19196691 -301.76655388 1187.48851585 C-301.76639777 1186.38344188 -301.76624165 1185.27836791 -301.76608081 1184.13980684 C-301.76433529 1171.81776484 -301.76247676 1159.49572285 -301.76057954 1147.17368087 C-301.76040852 1146.06123654 -301.7602375 1144.94879221 -301.7600613 1143.80263744 C-301.75863993 1134.56062781 -301.75863993 1134.56062781 -301.75797685 1130.30624385 C-301.74690849 1059.17099305 -301.7619822 988.03579417 -301.79951859 916.90055275 C-301.80896355 898.97927168 -301.81832481 881.05799058 -301.82719231 863.13670921 C-301.82773895 862.03312128 -301.8282856 860.92953334 -301.8288488 859.79250335 C-301.84560079 825.75969879 -301.85495161 791.72689854 -301.85660744 757.69408989 C-301.85666017 756.62503875 -301.8567129 755.55598762 -301.85676723 754.45454099 C-301.85784899 730.98223806 -301.85710347 707.50993548 -301.8546878 684.03763266 C-301.85383661 675.6380613 -301.85310634 667.23848993 -301.85242892 658.83891856 C-301.85225832 656.7494424 -301.85208045 654.65996624 -301.85189528 652.57049008 C-301.8490022 619.32786776 -301.86322145 586.08528082 -301.88590321 552.842667 C-301.90924348 518.41187332 -301.91028682 483.98114261 -301.88621636 449.55034861 C-301.8837129 445.84567733 -301.8813059 442.141006 -301.87897491 438.43633461 C-301.87839433 437.52719395 -301.87781374 436.61805328 -301.87721556 435.6813629 C-301.8685965 421.34054576 -301.87997076 406.99981873 -301.8998553 392.65901574 C-301.91902541 378.52526941 -301.91645227 364.39166084 -301.89144285 350.25792232 C-301.87866364 342.71103555 -301.87499427 335.16444544 -301.89916952 327.61757836 C-302.09953311 261.63399407 -302.09953311 261.63399407 -292.75233499 232.63256352 C-292.10522641 230.43446304 -291.68690761 228.26849396 -291.3146553 226.00895119 C-287.38508215 205.32185946 -277.55949109 185.14418757 -268.1271553 166.50895119 C-267.41784378 165.09277404 -266.70937469 163.67617428 -266.0021553 162.25895119 C-264.04382197 158.34228452 -262.08548864 154.42561785 -260.1271553 150.50895119 C-259.4671553 150.50895119 -258.8071553 150.50895119 -258.1271553 150.50895119 C-257.8796553 149.62207619 -257.6321553 148.73520119 -257.3771553 147.82145119 C-256.06326668 144.33964633 -254.48704403 142.35469936 -252.1271553 139.50895119 C-251.14384991 137.79609663 -250.16117961 136.08273997 -249.20137405 134.35660744 C-247.37961212 131.22317691 -245.3496844 128.37484397 -243.1271553 125.50895119 C-242.4671553 125.50895119 -241.8071553 125.50895119 -241.1271553 125.50895119 C-240.9724678 124.61176369 -240.9724678 124.61176369 -240.8146553 123.69645119 C-240.02803674 121.19357395 -238.99169699 120.29580364 -237.1271553 118.50895119 C-236.6321553 117.02395119 -236.6321553 117.02395119 -236.1271553 115.50895119 C-235.00600031 114.38779619 -233.87975397 113.2712815 -232.7287178 112.18082619 C-229.8558068 109.18178738 -227.41457003 105.81847144 -224.89668655 102.52066994 C-224.31274124 101.85680275 -223.72879593 101.19293556 -223.1271553 100.50895119 C-222.4671553 100.50895119 -221.8071553 100.50895119 -221.1271553 100.50895119 C-220.8590303 99.86957619 -220.5909053 99.23020119 -220.3146553 98.57145119 C-219.1271553 96.50895119 -219.1271553 96.50895119 -216.1271553 95.50895119 C-215.7971553 94.84895119 -215.4671553 94.18895119 -215.1271553 93.50895119 C-214.1271553 91.50895119 -214.1271553 91.50895119 -211.1271553 90.50895119 C-210.7971553 89.84895119 -210.4671553 89.18895119 -210.1271553 88.50895119 C-209.1271553 86.50895119 -209.1271553 86.50895119 -206.1271553 85.50895119 C-205.7971553 84.84895119 -205.4671553 84.18895119 -205.1271553 83.50895119 C-204.1271553 81.50895119 -204.1271553 81.50895119 -201.1271553 80.50895119 C-201.1271553 79.84895119 -201.1271553 79.18895119 -201.1271553 78.50895119 C-199.42812507 76.99154143 -197.66642808 75.54382319 -195.8771553 74.13395119 C-192.42236462 71.40119347 -189.23227031 68.62750825 -186.1271553 65.50895119 C-184.47453691 64.48590171 -182.80924165 63.48279065 -181.1271553 62.50895119 C-180.1371553 61.51895119 -180.1371553 61.51895119 -179.1271553 60.50895119 C-178.1371553 60.50895119 -177.1471553 60.50895119 -176.1271553 60.50895119 C-175.7971553 59.51895119 -175.4671553 58.52895119 -175.1271553 57.50895119 C-169.91671351 53.20684312 -164.03765383 49.75393077 -158.1271553 46.50895119 C-157.1990303 45.93145119 -156.2709053 45.35395119 -155.3146553 44.75895119 C-153.1271553 43.50895119 -153.1271553 43.50895119 -151.1271553 43.50895119 C-151.1271553 42.84895119 -151.1271553 42.18895119 -151.1271553 41.50895119 C-148.73809172 40.3144194 -146.34891837 39.1201147 -143.95918655 37.92691994 C-142.22528232 37.05877202 -140.4930816 36.18719809 -138.76387405 35.30973244 C-131.29951205 31.53364343 -123.72365777 28.00921807 -116.1271553 24.50895119 C-115.30086624 24.12609962 -114.47457718 23.74324806 -113.62324905 23.34879494 C-94.54214053 14.66917467 -74.37530481 8.95158275 -53.7582504 5.34265646 C-50.55781517 4.778427 -47.37417462 4.15705287 -44.1904635 3.50535963 C-29.36532139 0.56845659 -15.08031609 -0.0590399 0 0 Z " fill="#FEFEFE" transform="translate(301.1271553039551,-0.5089511871337891)"/>
<path d="M0 0 C1.42892578 0.58007812 1.42892578 0.58007812 2.88671875 1.171875 C5.93448329 2.42516135 8.96686128 3.71175136 12 5 C13.16660156 5.47824219 14.33320312 5.95648438 15.53515625 6.44921875 C41.63959561 17.31140053 67.06172958 32.70413838 90.27539062 48.80810547 C92.13808603 50.09543261 94.01328534 51.3630403 95.890625 52.62890625 C124.24221971 71.81631443 152.0638872 93.28602723 176.9765625 116.80078125 C177.50628662 117.29707031 178.03601074 117.79335938 178.58178711 118.3046875 C179.6275737 119.28671243 180.66777575 120.27472959 181.70141602 121.26953125 C184.62398086 124.00964865 187.17032598 125.78878683 191 127 C191.85722656 126.20335937 192.71445313 125.40671875 193.59765625 124.5859375 C210.39894332 109 210.39894332 109 213 109 C213 108.34 213 107.68 213 107 C214.54888502 105.58293498 216.16761534 104.24190504 217.8125 102.9375 C219.32070312 101.7309375 219.32070312 101.7309375 220.859375 100.5 C221.38208984 100.08492188 221.90480469 99.66984375 222.44335938 99.2421875 C224.83686482 97.33218817 227.19796432 95.38317507 229.5625 93.4375 C252.28412489 74.87032129 275.66829742 57.50321051 300.38476562 41.67480469 C302.64106043 40.22986608 304.89137471 38.77617052 307.140625 37.3203125 C327.82948646 24.03982989 349.51752667 12.88085443 372 3 C373.44572388 2.36421021 373.44572388 2.36421021 374.9206543 1.71557617 C383.19067043 -1.82771905 391.65288391 -4.73744822 400.1875 -7.5625 C400.91810638 -7.80500488 401.64871277 -8.04750977 402.40145874 -8.29736328 C450.34748592 -24.15930552 503.90692521 -28.13353729 550.2109375 -4.921875 C558.6684244 -0.55523774 566.50177165 4.09296546 574 10 C574.66741211 10.50329834 575.33482422 11.00659668 576.02246094 11.52514648 C610.80202283 37.96074951 632.8443233 79.91090968 641.19140625 122.3203125 C641.83544322 125.25114742 642.58969426 128.06056653 643.42578125 130.9375 C645.22837561 137.46641561 646.30455914 144.08626669 647.30761719 150.77539062 C647.61962118 152.83941701 647.94975783 154.89996387 648.28125 156.9609375 C651.7328332 179.12666314 651.272489 201.68599554 651.3125 224.0625 C651.31438702 224.81088764 651.31627403 225.55927528 651.31821823 226.33034134 C651.37306873 250.22083104 651.24317709 274.18167689 646.45019531 297.69750977 C645.90678112 300.476761 645.80885447 303.17070715 645.6875 306 C645.21709801 313.22294672 643.92686555 320.16627906 642.51245117 327.2578125 C641.53592366 332.16209177 640.65545405 337.03980718 640 342 C639.06917837 349.0234723 637.71115496 355.95011361 636.3203125 362.89453125 C636.15015625 363.75691406 635.98 364.61929687 635.8046875 365.5078125 C635.64983887 366.27754395 635.49499023 367.04727539 635.33544922 367.84033203 C634.89767732 370.29450668 634.89767732 370.29450668 635 374 C638.35076516 375.15594868 641.70614301 376.29789972 645.0625 377.4375 C646.00544922 377.76298828 646.94839844 378.08847656 647.91992188 378.42382812 C652.97794919 380.13333561 657.68939062 381.30962078 663 382 C665.46484375 382.91015625 665.46484375 382.91015625 667.9375 384.0625 C673.97244062 386.68442177 680.12358547 388.76554595 686.375 390.8125 C703.75416015 396.53035986 720.83220595 402.73146502 737.63061523 409.98681641 C740.34367751 411.14696153 743.06754926 412.27935226 745.79296875 413.41015625 C761.61537384 419.99156621 777.29312213 426.74043379 792.29248047 435.05371094 C794.66364095 436.36778271 797.05211828 437.64946583 799.4375 438.9375 C801.29198768 439.95775006 803.14610914 440.97866587 805 442 C806.39319694 442.75787175 807.78642912 443.51567871 809.1796875 444.2734375 C818.10417836 449.15062025 826.80691372 454.22479099 835.27587891 459.85693359 C837.05571303 461.0369369 838.84533287 462.20090258 840.63671875 463.36328125 C857.73302551 474.52084732 873.53143804 487.0898453 888.61328125 500.8359375 C890.19986396 502.27450841 891.8015189 503.69663516 893.41796875 505.1015625 C926.68149319 534.18731519 954.27304266 577.21962672 957.58203125 621.98852539 C957.74465846 624.6584008 957.87764202 627.3280076 958 630 C958.04382812 630.75812988 958.08765625 631.51625977 958.1328125 632.29736328 C959.1794598 651.72575372 955.76035357 671.79736513 949 690 C948.69449219 690.86625 948.38898438 691.7325 948.07421875 692.625 C940.94391671 711.72290149 929.84668167 729.27446973 917 745 C916.57058105 745.53238281 916.14116211 746.06476562 915.69873047 746.61328125 C903.68369524 761.42549092 890.12059265 775.35867541 875 787 C873.8995811 787.89766562 872.80211946 788.79896399 871.70703125 789.703125 C838.22969363 817.23015651 799.58225085 837.95644441 760.1875 855.6875 C758.76353967 856.33108778 757.3397113 856.9749676 755.91601562 857.61914062 C753.18543026 858.85429255 750.45392577 860.08737416 747.72167969 861.31884766 C744.42260255 862.80688408 741.1308391 864.31057358 737.83984375 865.81640625 C718.55487955 874.58295379 698.07503671 880.97803551 678.0625 887.875 C677.38295258 888.10979065 676.70340515 888.3445813 676.00326538 888.58648682 C654.52516378 896 654.52516378 896 650 896 C650.17128418 896.54825439 650.34256836 897.09650879 650.51904297 897.66137695 C656.24448541 916.08446672 656.24448541 916.08446672 657.51171875 924.23828125 C658.14997343 927.8482497 659.03664675 931.38622643 659.9375 934.9375 C660.11224854 935.6289209 660.28699707 936.3203418 660.46704102 937.03271484 C661.23349537 940.04650886 662.01474345 943.054972 662.8203125 946.05859375 C664.61033958 952.85127546 665.85285941 959.65626177 666.91040039 966.59521484 C667.43445336 969.96002969 668.03476642 973.11847849 668.99609375 976.39453125 C670.28247787 981.01450224 670.88265028 985.62615598 671.5 990.375 C672.17008914 995.48535012 672.84377656 1000.53626856 674.03515625 1005.5546875 C675.12980111 1010.26280392 675.5556889 1014.93881306 675.9375 1019.75 C676.64780498 1027.91559623 677.62325856 1036.00200924 678.85913086 1044.10449219 C680.94194382 1057.88810434 682.30649698 1071.32446853 682.23046875 1085.26953125 C682.22926973 1086.76673848 682.2288253 1088.26394648 682.2290802 1089.76115417 C682.22753371 1092.87117353 682.21939171 1095.98107481 682.20581055 1099.09106445 C682.18886612 1103.01395272 682.1850909 1106.93671307 682.18561649 1110.85963345 C682.18480623 1137.97576703 682.18480623 1137.97576703 681.5703125 1150.5859375 C681.53443527 1151.32274246 681.49855804 1152.05954742 681.46159363 1152.81867981 C681.05226313 1159.85723796 680.0699778 1166.83424887 678.8828125 1173.78125 C678.25873435 1177.46655124 677.65066413 1181.15379285 677.0546875 1184.84375 C673.36334571 1207.3098297 667.3256112 1229.17182103 658 1250 C657.71253906 1250.66684814 657.42507813 1251.33369629 657.12890625 1252.02075195 C640.42443796 1290.44682917 610.23037253 1323.78536192 570.98193359 1339.82470703 C566.71526931 1341.43091844 562.38604953 1342.75390701 558 1344 C557.03191406 1344.28359375 556.06382813 1344.5671875 555.06640625 1344.859375 C552.05971194 1345.67672879 549.04808244 1346.35387953 546 1347 C544.18435547 1347.41958984 544.18435547 1347.41958984 542.33203125 1347.84765625 C517.6815602 1352.95783455 484.84859748 1353.26706018 461 1345 C459.2143712 1344.69186052 457.42181513 1344.42175527 455.625 1344.1875 C447.81368641 1342.93999292 440.47114147 1340.51666277 433 1338 C431.78304443 1337.59491211 431.78304443 1337.59491211 430.54150391 1337.18164062 C421.09203132 1334.02278079 411.88151647 1330.71563154 402.90234375 1326.37890625 C400.15495368 1325.07361864 397.38992631 1323.93143892 394.5625 1322.8125 C367.45336717 1311.6183594 342.25758393 1295.7735846 318.03515625 1279.37451172 C315.85138076 1277.89962496 313.65999837 1276.43641386 311.46875 1274.97265625 C295.25743028 1264.08218884 280.08992608 1251.98668318 264.98974609 1239.62207031 C262.94457419 1237.95481607 260.88975126 1236.30017362 258.83203125 1234.6484375 C251.87988655 1229.05885123 245.10960108 1223.39111473 238.5703125 1217.3203125 C235.97611023 1214.97843385 233.29798238 1212.79935779 230.5625 1210.625 C225.80681025 1206.79327283 221.53300529 1202.65002701 217.26538086 1198.296875 C214.63758076 1195.6208623 211.99057658 1193.04454867 209.125 1190.625 C202.70337736 1185.17345227 196.91398151 1178.9887369 191 1173 C187.97022571 1174.35231187 185.91527387 1175.85480543 183.609375 1178.23046875 C182.98619385 1178.86525146 182.3630127 1179.50003418 181.72094727 1180.15405273 C181.07053467 1180.82509033 180.42012207 1181.49612793 179.75 1182.1875 C175.21636829 1186.79943841 170.68939685 1191.30043892 165.7421875 1195.47265625 C163.78822709 1197.18565742 161.99732075 1199.01066658 160.1875 1200.875 C156.36616219 1204.75581389 152.23277857 1208.11063407 147.98828125 1211.515625 C144.71482719 1214.23708484 141.60480401 1217.08999105 138.5 1220 C132.8644701 1225.26548706 127.01833296 1230.17427633 121 1235 C119.81903903 1235.97110966 118.63943251 1236.94386799 117.4609375 1237.91796875 C65.19379873 1281.00349345 8.03802009 1316.44588762 -56 1339 C-57.71509766 1339.60714844 -57.71509766 1339.60714844 -59.46484375 1340.2265625 C-98.37400155 1353.07441863 -145.08361855 1355.34967629 -184 1342 C-185.75763672 1341.4121875 -185.75763672 1341.4121875 -187.55078125 1340.8125 C-225.85696259 1327.07379486 -257.65776404 1294.81185006 -274.96484375 1258.3203125 C-279.65339182 1247.81088778 -283.2743984 1236.87958411 -287 1226 C-287.27956543 1225.18394287 -287.55913086 1224.36788574 -287.84716797 1223.52709961 C-288.11287598 1222.74214111 -288.37858398 1221.95718262 -288.65234375 1221.1484375 C-288.88816162 1220.45282715 -289.12397949 1219.7572168 -289.36694336 1219.04052734 C-290.24889899 1216.1977255 -290.86731449 1213.32350359 -291.47485352 1210.41137695 C-292.04621683 1207.78778072 -292.72145657 1205.20274385 -293.40234375 1202.60546875 C-295.14373832 1195.66579464 -296.39151817 1188.68044257 -297.5625 1181.625 C-297.87477539 1179.83642578 -297.87477539 1179.83642578 -298.19335938 1178.01171875 C-301.9449589 1155.59620561 -302.43549089 1133.19717322 -302.43726349 1110.52507401 C-302.43742205 1108.87416154 -302.43873166 1107.2232488 -302.44115448 1105.5723381 C-302.49276055 1069.72199584 -299.85784797 1034.73996429 -293 999.5 C-291.91233714 993.86338528 -290.84307553 988.2318594 -289.9375 982.5625 C-289.07696507 977.22567375 -287.93900459 971.96686091 -286.78125 966.6875 C-285.97582572 962.88589738 -285.25880308 959.07260026 -284.5625 955.25 C-283.46299943 949.26677401 -282.24527373 943.31622031 -280.9375 937.375 C-280.69398804 936.25593262 -280.69398804 936.25593262 -280.44555664 935.11425781 C-279.52119259 930.97363268 -278.34597905 927.02703855 -277 923 C-276.51402956 920.81847337 -276.05696532 918.63035924 -275.625 916.4375 C-274.17873554 909.47318035 -272.21090406 902.75616367 -270 896 C-270.59611084 895.92160889 -271.19222168 895.84321777 -271.80639648 895.76245117 C-280.93223797 894.34875563 -289.38354972 891.35799807 -298.0625 888.3125 C-299.63620931 887.76655003 -301.21002177 887.22089733 -302.78393555 886.67553711 C-312.04457537 883.45340123 -321.2394781 880.10228619 -330.33984375 876.44921875 C-333.99184754 875.00322792 -337.66858615 873.67444391 -341.375 872.375 C-351.14877075 868.92212587 -360.53419206 864.78083925 -369.921875 860.3984375 C-372.55152579 859.20374844 -375.18283408 858.10549143 -377.875 857.0625 C-384.73275504 854.36995195 -391.36603163 851.19535643 -398 848 C-398.74540039 847.64164063 -399.49080078 847.28328125 -400.25878906 846.9140625 C-435.34802356 829.9471963 -471.81770897 809.36258678 -500.375 782.44921875 C-502.46700275 780.49730547 -504.58747874 778.6206219 -506.75390625 776.75390625 C-518.07912283 766.8825129 -528.97924861 756.03334195 -538 744 C-538.64243652 743.15622803 -538.64243652 743.15622803 -539.29785156 742.29541016 C-545.04209376 734.73878126 -550.38661415 727.05745315 -555.24609375 718.90234375 C-556.47188715 716.87391502 -557.76183048 714.88349984 -559.09765625 712.92578125 C-560.76277566 710.36484812 -561.93148298 708.0930185 -563 705.25 C-563.33128906 704.38246094 -563.66257812 703.51492188 -564.00390625 702.62109375 C-564.33261719 701.75613281 -564.66132812 700.89117188 -565 700 C-565.64452563 698.43696012 -566.29036466 696.8744612 -566.9375 695.3125 C-567.63218011 693.54447102 -568.31908374 691.77337531 -569 690 C-569.40347656 688.97003906 -569.80695313 687.94007813 -570.22265625 686.87890625 C-576.52276656 669.59695227 -578.36964965 651.90739074 -578.375 633.625 C-578.37690338 632.91958069 -578.37880676 632.21416138 -578.38076782 631.48736572 C-578.37830937 623.46088638 -578.010085 615.80032985 -576 608 C-575.80825195 607.20980469 -575.61650391 606.41960938 -575.41894531 605.60546875 C-567.28042968 573.10349273 -551.14461267 545.82104288 -529 521 C-528.51805176 520.4548877 -528.03610352 519.90977539 -527.53955078 519.34814453 C-488.17879813 474.97566042 -435.02184947 444.21265206 -381.47314453 420.11914062 C-378.21971149 418.64690597 -374.9849307 417.13743513 -371.75 415.625 C-367.37849357 413.60083944 -362.97727208 411.7312869 -358.48828125 409.984375 C-355.84272492 408.93778129 -353.23788071 407.81304862 -350.625 406.6875 C-344.30756701 404.03614211 -337.86277272 401.79812149 -331.38134766 399.58666992 C-327.28345679 398.18166711 -323.23536329 396.71576754 -319.22265625 395.08203125 C-313.07629786 392.59254103 -306.82985012 390.41347606 -300.5625 388.25 C-299.63380096 387.92867599 -299.63380096 387.92867599 -298.68634033 387.6008606 C-286.02416166 383.23173946 -273.23755235 379.3731271 -260.35888672 375.68920898 C-258.56111168 375.16394311 -256.77682565 374.59227522 -255 374 C-255.94999783 365.16252022 -257.21889865 356.4701606 -258.9375 347.75 C-261.58270414 334.28205487 -263.66278163 320.75381199 -265.15844727 307.109375 C-265.67474371 302.48739255 -266.29808203 297.89020781 -266.9765625 293.2890625 C-269.41018568 276.59032387 -270.81588941 260.17648742 -270.97784424 243.28552246 C-271.0022165 240.77135295 -271.03228003 238.25727567 -271.06201172 235.74316406 C-271.79292681 168.92933079 -267.68994453 96.0399921 -225 41 C-224.48695313 40.31470215 -223.97390625 39.6294043 -223.4453125 38.92333984 C-212.82636797 24.90112057 -199.79863831 12.51985574 -185 3 C-184.15888672 2.45641846 -184.15888672 2.45641846 -183.30078125 1.90185547 C-127.86545982 -33.22979491 -57.93135648 -23.7748385 0 0 Z " fill="#61DAFB" transform="translate(834,386)"/>
<path d="M0 0 C1.59714088 0.00060047 1.59714088 0.00060047 3.22654724 0.00121307 C25.41311598 0.01102868 47.59331548 0.13923377 69.7734375 0.703125 C70.55856342 0.72230736 71.34368935 0.74148972 72.15260696 0.76125336 C79.5687854 0.94791395 86.93650239 1.19791023 94.31433105 2.03097534 C97.24038752 2.34198043 100.15696132 2.42935681 103.09765625 2.49609375 C109.37739994 2.65722183 115.65197712 2.88297688 121.92871094 3.13476562 C124.8545891 3.2325989 127.76835019 3.26332302 130.6953125 3.265625 C136.39853462 3.39750204 140.78738152 3.78190394 145.125 7.79296875 C147.42324084 10.71558455 149.25799499 13.87674631 151.09667969 17.1015625 C152.88953877 20.11477105 154.93231246 22.91923457 156.98339844 25.76049805 C164.05708259 35.57548817 170.68208192 45.69598282 177.3125 55.8125 C177.76098297 56.49673035 178.20946594 57.18096069 178.67153931 57.88592529 C183.96541391 65.97007884 189.20526514 74.08574697 194.375 82.25 C195.27826521 83.66560752 196.18189122 85.08098491 197.0859375 86.49609375 C217.68980017 118.8576373 237.62127989 151.89008904 255.49853516 185.84008789 C257.96619257 190.51961682 260.53672275 195.13629067 263.125 199.75 C268.65592732 209.63323907 273.90558176 219.66370153 279.08105469 229.73706055 C279.91576678 231.35813443 280.75953116 232.97459427 281.61425781 234.58520508 C284.1515196 239.44309239 284.88158748 241.88278209 283.375 247.25 C282.78587453 248.65951076 282.17184131 250.05875826 281.5390625 251.44921875 C280.19688168 254.42261437 278.87158365 257.40015266 277.5859375 260.3984375 C273.7654484 269.22748198 269.64907726 277.81168976 265.05224609 286.26513672 C262.70217423 290.61184977 260.54237221 295.00304967 258.4921875 299.5 C255.40702152 306.25660196 252.06045877 312.85330948 248.625 319.4375 C248.32230194 320.01994476 248.01960388 320.60238953 247.70773315 321.20248413 C243.50387124 329.2902485 239.18480807 337.30397474 234.70751953 345.24365234 C232.33855522 349.45917386 230.11867289 353.71337771 228 358.0625 C220.15274672 373.99480211 210.70150104 389.16465528 201.73828125 404.484375 C199.67901856 408.00724109 197.63167545 411.53614703 195.60546875 415.078125 C184.53767037 434.41273961 172.76279813 453.34981304 160.73779297 472.10253906 C159.3551969 474.28120532 158.00652512 476.478489 156.66015625 478.6796875 C155.79505171 480.05778218 154.92920417 481.43541079 154.0625 482.8125 C153.69012207 483.43858154 153.31774414 484.06466309 152.93408203 484.7097168 C151.05085878 487.64805875 149.59633851 489.15036863 146.3984375 490.58984375 C140.7954221 491.74777538 135.00956473 491.92482338 129.3125 492.25 C127.99572266 492.33048584 126.67894531 492.41097168 125.32226562 492.49389648 C110.71803644 493.36477343 96.09791153 493.95985494 81.48022461 494.55273438 C80.52667587 494.5919249 79.57312714 494.63111542 78.59068298 494.67149353 C76.82583101 494.74369823 75.06091328 494.81432617 73.2959137 494.88282776 C68.33788264 495.08573082 63.40026432 495.39637059 58.4519043 495.76855469 C49.20403124 496.39633277 39.97304111 496.41416557 30.70703125 496.41796875 C28.81931027 496.42119786 26.93158953 496.42456303 25.04386902 496.42805481 C21.09458846 496.43400846 17.14532964 496.43589912 13.19604492 496.43530273 C9.2278988 496.43522226 5.25987005 496.44204322 1.29174805 496.45581055 C-21.45845089 496.53361198 -44.08102073 496.2263934 -66.78588867 494.72973633 C-74.77258693 494.20795062 -82.7498935 493.95622764 -90.75 493.75 C-100.55883077 493.47121214 -110.33786578 493.03449032 -120.125 492.3125 C-121.18734863 492.23773437 -122.24969727 492.16296875 -123.34423828 492.0859375 C-126.11453773 491.86586488 -128.86508357 491.57254184 -131.625 491.25 C-133.46191406 491.08757812 -133.46191406 491.08757812 -135.3359375 490.921875 C-140.94484704 488.07079034 -143.53624152 482.67282359 -146.75 477.4375 C-147.49789747 476.25202101 -148.24751168 475.06762346 -148.9987793 473.88427734 C-150.88111713 470.90851655 -152.73914691 467.9184473 -154.5894165 464.92266846 C-156.1138896 462.46034836 -157.65719975 460.00995237 -159.19921875 457.55859375 C-168.74664636 442.31809664 -177.94856029 426.86083647 -187.03881836 411.34423828 C-189.01909475 407.96675576 -191.01136475 404.59771598 -193.03515625 401.24609375 C-193.62550659 400.26829956 -193.62550659 400.26829956 -194.2277832 399.27075195 C-195.29023253 397.51507649 -196.35591443 395.76135832 -197.421875 394.0078125 C-199.74252742 390.11578387 -201.88253093 386.12904167 -204.04101562 382.14550781 C-206.10309069 378.37605494 -208.23496303 374.64859891 -210.36791992 370.91894531 C-215.39119928 362.12726715 -220.21981731 353.30180807 -224.66796875 344.20703125 C-226.8996919 339.6545934 -229.25818641 335.17083832 -231.625 330.6875 C-232.04918213 329.88368896 -232.47336426 329.07987793 -232.91040039 328.25170898 C-235.14026015 324.0351767 -237.38289411 319.82577637 -239.64501953 315.62646484 C-246.76873998 302.32024904 -253.38837766 288.78774501 -259.78979492 275.12084961 C-260.82066287 272.92007327 -261.85443057 270.72067717 -262.88867188 268.52148438 C-264.21325895 265.70480831 -265.52825849 262.88394022 -266.83740234 260.06005859 C-267.94143166 257.68500952 -269.08055213 255.34637718 -270.26025391 253.00634766 C-272.90386495 247.6616756 -274.48769526 244.22073249 -272.625 238.25 C-271.3046875 235.05078125 -271.3046875 235.05078125 -269.5 231.5625 C-269.16379639 230.90822021 -268.82759277 230.25394043 -268.48120117 229.57983398 C-267.21164091 227.12793933 -265.92016653 224.68847098 -264.625 222.25 C-264.04218262 221.15107422 -263.45936523 220.05214844 -262.85888672 218.91992188 C-257.24586863 208.35014621 -251.62155348 197.78479759 -245.78540039 187.33618164 C-244.58475642 185.17764962 -243.40173195 183.0102261 -242.22265625 180.83984375 C-235.56942932 168.61332253 -228.6291072 156.57172909 -221.57421875 144.57324219 C-219.4992158 141.03554928 -217.43623122 137.49103684 -215.375 133.9453125 C-207.81900735 120.9610949 -200.16782367 108.06504642 -192.02978516 95.43359375 C-188.18893917 89.4633945 -184.38466081 83.46987329 -180.6171875 77.453125 C-173.52020647 66.153609 -166.17870367 55.04060184 -158.6875 44 C-158.01518341 43.00885193 -158.01518341 43.00885193 -157.32928467 41.99768066 C-153.1884898 35.89855305 -149.03480892 29.81266027 -144.7734375 23.796875 C-142.81244897 21.0194527 -140.99473808 18.23739838 -139.31640625 15.28125 C-138.95998047 14.69085937 -138.60355469 14.10046875 -138.23632812 13.4921875 C-137.53224898 12.32265566 -136.86803428 11.12826548 -136.24414062 9.9140625 C-134.17794414 6.65736052 -132.40344641 5.45691262 -128.65087891 4.45947266 C-124.30958076 3.85646686 -119.99733858 3.52492684 -115.625 3.25 C-113.72921477 3.11015094 -111.83346465 2.96982526 -109.93774414 2.82910156 C-102.92122192 2.33684754 -95.90017547 1.96912698 -88.875 1.625 C-88.21709724 1.59229507 -87.55919449 1.55959015 -86.88135529 1.52589417 C-57.92956794 0.09775026 -28.98193261 -0.0236601 0 0 Z " fill="#FEFEFE" transform="translate(1018.625,775.75)"/>
<path d="M0 0 C3.34649353 12.46034824 6.47403772 24.95661701 9.41357422 37.51904297 C9.96223808 39.84024288 10.52636596 42.15693651 11.09765625 44.47265625 C13.39780838 53.86063671 15.13505848 63.25842432 16.64550781 72.80322266 C17.20516555 76.27140469 17.82096496 79.72905943 18.4375 83.1875 C18.55947754 83.88319092 18.68145508 84.57888184 18.80712891 85.2956543 C19.48850114 89.1744029 20.19730513 93.04609295 20.9375 96.9140625 C23.22093493 109.10026381 24.8320713 121.3068829 26.1875 133.625 C26.27208466 134.39131744 26.35666931 135.15763489 26.44381714 135.94717407 C26.99291315 140.96176699 27.53603732 145.97672562 28 151 C28.13213394 152.42822334 28.13213394 152.42822334 28.26693726 153.88529968 C28.98066593 162.26535402 29.17592767 170.59596737 29.203125 179.00390625 C29.20595238 179.69517042 29.20877975 180.38643459 29.21169281 181.09864616 C29.22654868 184.75920851 29.23586292 188.41973285 29.24023438 192.08032227 C29.24460959 195.05603357 29.25848341 198.03145339 29.28125 201.00708008 C29.40029964 216.88473283 29.3851628 232.4433223 26.35809326 248.10092163 C25.85645847 250.76124475 25.4857672 253.43509554 25.12109375 256.1171875 C25.00443359 256.92800781 24.88777344 257.73882813 24.76757812 258.57421875 C24.53975915 260.16221134 24.3160542 261.7507977 24.09570312 263.33984375 C23.451406 267.76713682 22.51708811 271.77072987 21 276 C20.62875 277.8871875 20.62875 277.8871875 20.25 279.8125 C14.49245873 306.20861228 -0.51900286 335.06651464 -23.296875 350.30859375 C-39.84066843 360.66041825 -55.74651747 363.46445419 -74.9375 363.5 C-76.06745895 363.50673737 -76.06745895 363.50673737 -77.22024536 363.51361084 C-85.57661576 363.53384941 -93.38984353 363.09309451 -101.47436523 360.71801758 C-104.02162766 359.99385143 -106.50545432 359.55963231 -109.125 359.1875 C-135.55525517 354.49462799 -161.75566416 341.27895691 -184.7890625 327.8515625 C-187.56106554 326.25310819 -190.35634755 324.73962175 -193.1875 323.25 C-222.51212571 307.33707811 -250.0835424 286.56230872 -275.39038086 264.90893555 C-278.51712139 262.23603818 -281.69136768 259.65094635 -284.9375 257.125 C-290.49185786 252.7304428 -295.5948465 247.87535486 -300.75390625 243.03125 C-303.73367557 240.23596283 -306.78499767 237.53917405 -309.87890625 234.87109375 C-313.37918607 231.78336993 -316.78414612 228.59229275 -320.20532227 225.41748047 C-323.86484169 222.02818437 -327.58338055 218.7208802 -331.35546875 215.45703125 C-333.67314179 213.40360597 -335.84221939 211.21943148 -338 209 C-338.598125 208.401875 -339.19625 207.80375 -339.8125 207.1875 C-340.204375 206.795625 -340.59625 206.40375 -341 206 C-339.32252051 201.96816332 -336.53177266 198.93084152 -333.6875 195.6875 C-332.89279297 194.77097656 -332.89279297 194.77097656 -332.08203125 193.8359375 C-330.95930624 192.54190469 -329.83475046 191.24945832 -328.70849609 189.95849609 C-327.04797957 188.05500031 -325.39220891 186.14750314 -323.73828125 184.23828125 C-323.20420654 183.62178711 -322.67013184 183.00529297 -322.11987305 182.37011719 C-321.58531494 181.75297852 -321.05075684 181.13583984 -320.5 180.5 C-319.4088975 179.24084787 -318.31775171 177.98173325 -317.2265625 176.72265625 C-316.4226709 175.79477295 -316.4226709 175.79477295 -315.60253906 174.84814453 C-314.54814591 173.63215486 -313.49283208 172.4169628 -312.43652344 171.20263672 C-305.93581944 163.72579527 -299.66270083 156.12302316 -293.58203125 148.30078125 C-291.26781126 145.32805035 -288.89636148 142.40713125 -286.5 139.5 C-274.33517418 124.70377568 -262.75471955 109.41713349 -251.296875 94.0703125 C-249.60571518 91.80968049 -247.90788321 89.55501448 -246.203125 87.3046875 C-240.52916338 79.80170548 -234.98664282 72.22553247 -229.58862305 64.52148438 C-225.24327267 58.32258271 -220.81691494 52.18465489 -216.36352539 46.06298828 C-215.85168701 45.35770996 -215.33984863 44.65243164 -214.8125 43.92578125 C-214.36519531 43.31130127 -213.91789062 42.69682129 -213.45703125 42.0637207 C-211.85283082 39.89695593 -211.85283082 39.89695593 -210.40893555 36.86669922 C-206.94924295 32.74957035 -203.8177032 32.73791058 -198.64453125 32.20703125 C-197.71922607 32.09050201 -196.7939209 31.97397278 -195.84057617 31.85391235 C-192.83368275 31.48134881 -189.82386125 31.14683751 -186.8125 30.8125 C-184.73562023 30.56180732 -182.65903943 30.30862547 -180.58276367 30.05297852 C-175.58049261 29.44274737 -170.57553722 28.86078412 -165.56835938 28.2923584 C-161.2536002 27.80120592 -156.94180037 27.28587149 -152.62963867 26.77246094 C-150.75249186 26.54926608 -148.87504744 26.32856006 -146.99731445 26.11035156 C-133.26541223 24.48861215 -119.59736299 22.36885055 -105.92840576 20.29168701 C-104.15601739 20.0235989 -102.38296969 19.75987927 -100.60986328 19.49658203 C-82.28942083 16.77486876 -64.17412475 13.14671358 -46.0378418 9.41784668 C-42.90652731 8.77579028 -39.77344589 8.14247138 -36.640625 7.5078125 C-34.48945694 7.06832655 -32.33840608 6.62826635 -30.1875 6.1875 C-29.22835693 5.99293213 -28.26921387 5.79836426 -27.28100586 5.59790039 C-22.72556922 4.65305985 -18.40621393 3.51305335 -14 2 C-12.11226032 1.58617885 -10.21589867 1.20948847 -8.3125 0.875 C-7.38050781 0.70742187 -6.44851563 0.53984375 -5.48828125 0.3671875 C-3 0 -3 0 0 0 Z " fill="#FEFEFE" transform="translate(1415,1301)"/>
<path d="M0 0 C0.59095459 0.13422363 1.18190918 0.26844727 1.79077148 0.40673828 C5.87049527 1.32499873 9.93439833 2.19961776 14.0625 2.875 C18.40668199 3.64162035 22.614121 4.67290938 26.875 5.8125 C35.86121679 8.17199694 45.00000456 9.61340331 54.15698242 11.14160156 C61.04138493 12.29691407 67.87432324 13.5439367 74.6875 15.0625 C83.34528308 16.98193244 92.07224168 18.32084032 100.84448242 19.60571289 C105.53853811 20.29598319 110.19795682 21.0105663 114.83984375 21.99609375 C121.50304229 23.37151547 128.25026873 24.12081582 135 24.9375 C136.41376769 25.11156712 137.82750428 25.28588711 139.24121094 25.46044922 C149.26128692 26.69215291 159.288321 27.86481031 169.32421875 28.96069336 C174.31306138 29.51763172 179.23712064 30.19627564 184.1796875 31.078125 C189.82955353 32.05619836 195.29432802 32.2687496 201.015625 32.0390625 C204.09950299 32.08491942 206.36921252 32.40113098 208.64526367 34.56201172 C210.22261574 36.64498076 211.61838336 38.78293099 213 41 C213.91043054 42.29439753 214.82828392 43.58360966 215.75390625 44.8671875 C216.69093 46.20254589 217.62709755 47.53850541 218.5625 48.875 C228.32353957 62.75282563 238.28083014 76.47289676 248.50292969 90.01464844 C250.55741177 92.739216 252.60434448 95.46941115 254.65087891 98.19995117 C255.66826436 99.55727333 256.68616095 100.91421253 257.70458984 102.27075195 C259.95626938 105.27014924 262.20446353 108.27184672 264.4375 111.28515625 C268.71356008 117.03853569 273.12044178 122.63855792 277.69140625 128.16015625 C280.15009058 131.18462919 282.51833147 134.27117409 284.875 137.375 C289.1872776 143.03917579 293.72539279 148.47769642 298.3515625 153.88671875 C300.75736114 156.70214402 303.10452263 159.56128421 305.4375 162.4375 C312.3071826 170.8679155 319.37009268 179.14218305 326.6875 187.1875 C339.41303038 201.23909113 339.41303038 201.23909113 341 206 C339.989375 206.845625 338.97875 207.69125 337.9375 208.5625 C333.59250564 212.34984803 329.55325828 216.4072197 325.5 220.5 C321.12321924 224.91468652 316.76149605 229.26058775 312.0078125 233.2734375 C309.86989159 235.11188311 307.80246252 237.01884605 305.73632812 238.93725586 C300.50071996 243.79735934 295.13824907 248.41321478 289.5703125 252.89453125 C287.21063516 254.82745843 284.94348849 256.82296619 282.6875 258.875 C277.89134378 263.18557735 272.83062677 267.11910444 267.7421875 271.07421875 C264.59136236 273.52605256 261.48303143 276.02644228 258.3815918 278.5402832 C250.7959264 284.67712292 243.01271579 290.43549431 235 296 C234.37512695 296.43666992 233.75025391 296.87333984 233.10644531 297.32324219 C216.98551678 308.58114552 200.57902355 319.09095867 183.39648438 328.66455078 C181.92133192 329.4865846 180.44820616 330.31228332 178.97851562 331.14404297 C155.99310511 344.14508946 130.45230045 354.38290714 104.6875 360.1875 C103.9464502 360.35459473 103.20540039 360.52168945 102.44189453 360.69384766 C77.83094895 366.04597042 49.01931395 365.86503015 26.86328125 352.88671875 C4.53055625 338.17088495 -8.47616315 315.83614116 -17.3125 291.125 C-17.55500488 290.44791992 -17.79750977 289.77083984 -18.04736328 289.07324219 C-19.75698223 284.11715955 -20.94004787 279.13014635 -22 274 C-22.15879639 273.26894043 -22.31759277 272.53788086 -22.48120117 271.78466797 C-27.81486054 247.19221737 -29.47023812 223.34193763 -29.3225708 198.25372314 C-29.30914963 195.16693605 -29.31441086 192.08029337 -29.3194294 188.99349022 C-29.36809356 149.5277059 -29.36809356 149.5277059 -25.47314453 130.45654297 C-24.52490936 125.53335295 -24.02356709 120.53941897 -23.4375 115.5625 C-23.18849462 113.45936222 -22.93728443 111.35648401 -22.68359375 109.25390625 C-22.57587646 108.33939697 -22.46815918 107.4248877 -22.35717773 106.48266602 C-22.03761573 104.26145886 -21.55355973 102.17094696 -21 100 C-20.87370083 98.10551241 -20.77250336 96.20928917 -20.6875 94.3125 C-20.25225943 88.06469188 -19.01660862 82.27080644 -17.51025391 76.21875 C-16.52671351 72.259756 -15.66775548 68.35141636 -15.0625 64.3125 C-13.72221886 55.67776839 -11.60908272 47.19236763 -9.62597656 38.6875 C-9.06577734 36.28240132 -8.51204685 33.87594388 -7.9609375 31.46875 C-5.53060108 20.91938014 -2.80066502 10.45658129 0 0 Z " fill="#FEFEFE" transform="translate(633,1301)"/>
<path d="M0 0 C0.1858667 0.67353516 0.3717334 1.34707031 0.56323242 2.04101562 C5.40081229 19.53680524 10.55501563 36.85008959 16.34375 54.0546875 C17.52730823 57.57534441 18.69039203 61.10214925 19.84375 64.6328125 C23.59006556 76.05898088 27.56378701 87.3607747 31.84375 98.59838867 C33.96230716 104.17487927 35.97842721 109.76116544 37.8125 115.4375 C39.30206859 120.01805051 40.95211934 124.37538319 42.984375 128.73828125 C44.17734321 131.3949297 45.21496599 134.09036056 46.25 136.8125 C54.87930125 159.72444069 54.87930125 159.72444069 65 182 C65.40493364 186.81802398 64.44982859 189.82880802 62.3125 194.125 C60.2810835 198.31568439 58.35356782 202.48813068 56.625 206.8125 C54.3149875 212.44922952 51.62786374 217.84923615 48.87817383 223.27954102 C45.01490339 230.91512736 41.6929587 238.71597482 38.421875 246.62109375 C36.80054844 250.47397143 35.12285269 254.29982252 33.4375 258.125 C31.20081107 263.20627711 29.04158622 268.30135823 27.01953125 273.47265625 C25.7854233 276.53192002 24.45170862 279.54226667 23.125 282.5625 C20.50036557 288.63362408 18.26355244 294.78197621 16.10986328 301.03344727 C14.87388478 304.59876986 13.60161408 308.07836991 12 311.5 C9.7792915 316.26127213 8.12929568 321.21662497 6.41308594 326.17480469 C4.64499503 331.25234318 2.74150868 336.25646137 0.75 341.25 C-3.06664914 350.85909163 -6.38242583 360.64119822 -9.71191406 370.42675781 C-10.1240918 371.63686523 -10.53626953 372.84697266 -10.9609375 374.09375 C-11.51467041 375.72860352 -11.51467041 375.72860352 -12.07958984 377.39648438 C-13 380 -13 380 -14 382 C-18.95242947 381.40952869 -23.44435557 380.36443467 -28.18359375 378.8203125 C-28.84279312 378.60688202 -29.50199249 378.39345154 -30.1811676 378.17355347 C-31.56606754 377.7240108 -32.95008874 377.27175269 -34.33325195 376.81689453 C-36.42667982 376.12855777 -38.52259624 375.44830931 -40.61914062 374.76953125 C-47.1355093 372.6516702 -53.605777 370.46624419 -60 368 C-61.50415095 367.44763292 -63.00942708 366.89832324 -64.515625 366.3515625 C-65.29292969 366.06796875 -66.07023438 365.784375 -66.87109375 365.4921875 C-68.44072627 364.92000619 -70.01102679 364.34965362 -71.58203125 363.78125 C-78.13946702 361.3829786 -84.56503437 358.70710948 -91 356 C-93.04624108 355.15341408 -95.09311563 354.30835764 -97.140625 353.46484375 C-99.17708333 352.62239583 -101.21354167 351.77994792 -103.25 350.9375 C-104.27351562 350.51662109 -105.29703125 350.09574219 -106.3515625 349.66210938 C-111.31662704 347.60396887 -116.19370985 345.48166866 -120.97460938 343.02563477 C-123.30823209 341.84391478 -125.66947606 340.73282136 -128.0390625 339.625 C-145.53592035 331.41884202 -162.93679003 322.80484976 -179 312 C-180.1516246 311.24629585 -181.30402732 310.49377987 -182.45703125 309.7421875 C-196.34286594 300.64856862 -209.47381804 290.89010921 -222 280 C-222.77214844 279.35160156 -223.54429687 278.70320313 -224.33984375 278.03515625 C-228.31239429 274.67259428 -231.79474042 271.12894314 -235.15625 267.15625 C-237.19160424 264.77592046 -239.31207012 262.48762275 -241.4375 260.1875 C-260.97986888 238.42591295 -272.44569535 213.2200231 -271.23535156 183.77001953 C-270.38376385 173.74707949 -267.1202715 164.57225782 -262 156 C-261.38125 154.4221875 -261.38125 154.4221875 -260.75 152.8125 C-252.55414566 133.05384575 -233.47342753 114.5438044 -217.01977539 101.4375 C-214.12153364 99.09809943 -211.29246888 96.6928243 -208.4609375 94.2734375 C-202.26676281 89.06381639 -195.70290397 84.50200892 -188.9375 80.0625 C-188.05801697 79.48130402 -188.05801697 79.48130402 -187.1607666 78.8883667 C-153.86952395 56.90254266 -117.86771894 39.61952772 -80.64453125 25.40625 C-78.09275931 24.42164346 -75.5501713 23.42382197 -73.01171875 22.40625 C-60.50771808 17.41760725 -47.81233418 13.124732 -35 9 C-34.38316345 8.80047729 -33.7663269 8.60095459 -33.13079834 8.39538574 C-29.19484933 7.1222858 -25.25546371 5.86078086 -21.31118774 4.6137085 C-19.41251244 4.01189022 -17.51616424 3.40274584 -15.61987305 2.79345703 C-14.45367432 2.42849121 -13.28747559 2.06352539 -12.0859375 1.6875 C-10.5397876 1.19830078 -10.5397876 1.19830078 -8.96240234 0.69921875 C-5.87306966 -0.02995949 -3.16241871 -0.12732198 0 0 Z " fill="#FEFEFE" transform="translate(599,831)"/>
<path d="M0 0 C7.40435638 0.59198421 14.12838345 2.69606026 21.1875 4.9375 C22.46091982 5.33762139 23.73435766 5.73768541 25.0078125 6.13769531 C42.16705585 11.55796586 59.2434567 17.31459812 76.0144043 23.84130859 C79.10580846 25.04106362 82.20795004 26.20974587 85.3125 27.375 C100.80695558 33.35563903 115.81347335 40.53999625 130.86328125 47.54394531 C133.7174164 48.86882561 136.57653011 50.18215322 139.4375 51.4921875 C147.47768637 55.19867875 155.18372126 59.06837443 162.65234375 63.85546875 C165.12701303 65.44075864 167.60842798 66.97945094 170.12890625 68.48828125 C185.15851583 77.49214907 199.91425754 86.86467517 213.09375 98.4609375 C215.83488415 100.85574556 218.64471378 103.1186675 221.5 105.375 C244.39414265 124.06409604 266.27361914 151.04855273 271 181 C273.71278126 209.17960116 262.82287923 234.03157022 245.35791016 255.62866211 C234.62960633 268.53861687 222.47485767 280.96132099 209 291 C208.38817871 291.46116211 207.77635742 291.92232422 207.14599609 292.39746094 C184.90563077 309.09769219 161.15836825 323.16315872 136.20825195 335.40893555 C132.83855205 337.06324773 129.5525054 338.7926232 126.3125 340.6875 C122.0247366 343.11589684 117.54650766 344.76896359 112.93359375 346.48046875 C107.1024232 348.68656676 101.40432988 351.22067573 95.68652344 353.70214844 C72.6790314 363.66478541 48.9363128 371.93857622 25.0625 379.5625 C24.28221436 379.81386719 23.50192871 380.06523438 22.69799805 380.32421875 C19.68992931 381.26952447 17.17308779 382 14 382 C11.4407647 374.85894129 8.89480199 367.71390217 6.38671875 360.5546875 C2.00819972 348.07514579 -2.40884392 335.6414261 -7.42626953 323.40014648 C-9.54673357 318.21216656 -11.37492178 312.98571677 -13.078125 307.64453125 C-14.36868462 303.94237505 -16.04516855 300.45765452 -17.71484375 296.9140625 C-19.1509275 293.65777534 -20.33191713 290.36144223 -21.5 287 C-23.28334334 281.89290219 -25.27976407 277.01545683 -27.57421875 272.12109375 C-29.34662858 268.24121579 -30.98425837 264.31196363 -32.625 260.375 C-39.1952827 244.68073808 -45.81252581 228.99313693 -53.5859375 213.8515625 C-55.25185274 210.49212016 -56.63051435 207.07877213 -57.95703125 203.57421875 C-59.68685014 199.30474068 -61.77681478 195.20105544 -63.828125 191.078125 C-65.41656505 186.90582248 -65.71684401 183.7950479 -64.046875 179.61328125 C-63.61890625 178.85402344 -63.1909375 178.09476563 -62.75 177.3125 C-60.86947402 173.78387259 -59.31630948 170.3387977 -58 166.5625 C-56.69802358 162.82912184 -55.24626993 159.26485543 -53.5625 155.6875 C-51.09376982 150.38765722 -49.16313127 144.96745785 -47.2421875 139.44921875 C-46.13291264 136.36906246 -44.92180907 133.37969814 -43.625 130.375 C-41.05496063 124.33020334 -38.92639495 118.16349168 -36.79077148 111.95605469 C-34.71628188 105.95878322 -32.49239196 100.03697301 -30.1875 94.125 C-25.41022047 81.79961882 -21.33122754 69.244863 -17.21362305 56.68774414 C-15.53146472 51.57629744 -13.82320969 46.47371582 -12.11376953 41.37133789 C-10.31973607 35.94086703 -8.65237188 30.4749364 -7 25 C-6.48441328 23.30597793 -5.96878513 21.61196847 -5.453125 19.91796875 C-4.90596542 18.11206537 -4.35909053 16.3060757 -3.8125 14.5 C-3.55025635 13.63866455 -3.2880127 12.7773291 -3.01782227 11.88989258 C-1.83016676 7.94796126 -0.69160039 4.06627699 0 0 Z " fill="#FEFEFE" transform="translate(1449,831)"/>
<path d="M0 0 C1.10794922 -0.01224609 2.21589844 -0.02449219 3.35742188 -0.03710938 C13.72211259 -0.05528242 23.62488713 1.05697808 33.3125 4.875 C33.98837158 5.13772705 34.66424316 5.4004541 35.3605957 5.67114258 C59.1944006 15.23678481 75.00668088 33.09228657 85.3125 56.1875 C87.32739415 61.16343138 89.03338627 66.23443041 90.69238281 71.33789062 C91.53955303 73.86472588 92.52430838 76.33292279 93.5 78.8125 C97.38650894 89.45605144 98.72916696 101.01171133 100.3125 112.1875 C100.43125488 113.01233887 100.55000977 113.83717773 100.67236328 114.68701172 C101.07876727 117.51975327 101.47784417 120.35344783 101.875 123.1875 C102.00197266 124.07703369 102.12894531 124.96656738 102.25976562 125.88305664 C103.97364991 138.32345349 104.51917537 150.70256185 104.5 163.25 C104.49939575 163.9907074 104.4987915 164.73141479 104.49816895 165.49456787 C104.46613714 180.12646267 103.66676532 194.61642615 102.3125 209.1875 C102.24226624 209.95503601 102.17203247 210.72257202 102.09967041 211.5133667 C101.54308404 217.59405402 100.9645886 223.67243025 100.375 229.75 C100.25602356 230.99357269 100.25602356 230.99357269 100.13464355 232.26226807 C99.03451119 243.65851824 97.50810778 254.92673994 95.63095093 266.22055054 C95.19179045 268.93307668 94.81191894 271.6528797 94.4375 274.375 C92.87009773 284.7252598 90.50195565 294.95460985 88.3125 305.1875 C84.04192328 305.29727003 80.44859489 305.16244085 76.375 303.875 C64.43652759 300.41785102 51.96590411 298.77279948 39.73120117 296.66821289 C34.42726733 295.75014857 29.14622803 294.77728197 23.875 293.6875 C9.66232499 290.78792416 -4.66950709 288.39961076 -19.09155273 286.83569336 C-22.80795109 286.42852277 -26.45677914 285.90784549 -30.125 285.1875 C-35.30633873 284.188132 -40.50776603 283.62402203 -45.7512207 283.078125 C-54.59098393 282.13512167 -63.38516738 280.86902542 -72.19042969 279.65112305 C-81.52134318 278.39395348 -90.83731518 277.48120206 -100.23876953 276.95898438 C-108.86013012 276.39265096 -108.86013012 276.39265096 -112.6875 273.1875 C-114.46875 271.0859375 -114.46875 271.0859375 -116.1875 268.5625 C-119.68409891 263.57770646 -123.29297327 258.70563108 -127 253.875 C-127.55719727 253.14829102 -128.11439453 252.42158203 -128.68847656 251.67285156 C-136.85723104 241.04072918 -145.15938787 230.53433138 -153.6875 220.1875 C-155.18821175 218.35474924 -156.68820638 216.52141105 -158.1875 214.6875 C-158.93515625 213.77484375 -159.6828125 212.8621875 -160.453125 211.921875 C-161.905615 210.14435227 -163.35378167 208.3632849 -164.796875 206.578125 C-169.66543925 200.57237786 -174.6706484 194.70207162 -179.7512207 188.87597656 C-182.80671042 185.36954604 -185.82782396 181.83996237 -188.80615234 178.26782227 C-194.47223699 171.47838023 -200.44730558 165.01989527 -206.5078125 158.58203125 C-210.78609105 154.03213583 -214.93815243 149.39991016 -218.8125 144.5 C-220.94850206 141.86559746 -223.26111454 139.55874033 -225.6875 137.1875 C-227.12633908 135.75134033 -228.56376708 134.31376596 -230 132.875 C-230.69738281 132.17761719 -231.39476562 131.48023438 -232.11328125 130.76171875 C-232.63277344 130.24222656 -233.15226562 129.72273437 -233.6875 129.1875 C-232.1920292 125.59028644 -230.16043692 123.55652779 -227.25 121 C-226.35410156 120.21238281 -225.45820312 119.42476562 -224.53515625 118.61328125 C-220.86995272 115.49107084 -217.13868851 112.45643281 -213.39453125 109.4296875 C-210.81446409 107.29266218 -208.34035515 105.08014255 -205.875 102.8125 C-200.30092347 97.74114873 -194.40074678 93.13733024 -188.43701172 88.53857422 C-186.79804834 87.27287183 -185.16568647 85.99919317 -183.53515625 84.72265625 C-162.23404863 68.14915889 -139.93682273 52.89836331 -116.6875 39.1875 C-116.00880859 38.78692383 -115.33011719 38.38634766 -114.63085938 37.97363281 C-105.18722401 32.43975373 -95.5232939 27.57338874 -85.56201172 23.04248047 C-83.91275807 22.29024209 -82.27026155 21.52322604 -80.62890625 20.75390625 C-73.77156408 17.55912129 -66.79564937 14.77437509 -59.6875 12.1875 C-58.70765137 11.82954346 -58.70765137 11.82954346 -57.70800781 11.46435547 C-39.01117297 4.71149865 -19.93237171 0.01139644 0 0 Z " fill="#FEFEFE" transform="translate(1309.6875,436.8125)"/>
<path d="M0 0 C3.45637057 1.71047328 6.97457125 3.25593942 10.50488281 4.80639648 C20.62794319 9.2685588 30.18648791 14.21078102 39.58496094 20.03613281 C41.7282774 21.35749294 43.88701682 22.64993131 46.05078125 23.9375 C68.63570917 37.44064493 90.17110596 52.83039759 110.66796875 69.3203125 C111.61470459 70.07779785 111.61470459 70.07779785 112.58056641 70.85058594 C121.833473 78.2592941 130.86741912 85.88407836 139.79052734 93.68554688 C143.04596021 96.52018647 146.32580495 99.3262819 149.60546875 102.1328125 C150.21535645 102.65496338 150.82524414 103.17711426 151.45361328 103.71508789 C152.85808304 104.91719802 154.26297466 106.11881524 155.66796875 107.3203125 C154.07857449 111.25245551 151.50454373 113.65051596 148.48046875 116.5703125 C144.72913733 120.24000121 141.144484 123.96941081 137.7421875 127.96484375 C135.40099114 130.62349047 132.97786578 133.19359864 130.54589844 135.76904297 C125.4895029 141.12387891 120.5264428 146.41582476 116.1953125 152.390625 C114.20817444 154.9012291 111.93348249 157.05811577 109.66796875 159.3203125 C107.75160149 161.45207598 105.89628179 163.63367858 104.04296875 165.8203125 C103.26191772 166.73780273 103.26191772 166.73780273 102.46508789 167.67382812 C101.38840589 168.93932454 100.31264205 170.20560268 99.23779297 171.47265625 C97.77277733 173.1969546 96.30159904 174.91574202 94.828125 176.6328125 C89.66221561 182.67045758 84.66986404 188.81280538 79.79492188 195.08764648 C76.66043219 199.10552275 73.42189501 203.0142322 70.10546875 206.8828125 C65.21442475 212.60194245 60.59048131 218.50211758 56.04833984 224.50146484 C54.5281319 226.50456869 52.99920895 228.5008119 51.46875 230.49609375 C50.34762918 231.95831258 49.22653516 233.42055196 48.10546875 234.8828125 C47.59967285 235.54249023 47.09387695 236.20216797 46.57275391 236.88183594 C46.06663574 237.54344727 45.56051758 238.20505859 45.0390625 238.88671875 C44.5304921 239.53340515 44.02192169 240.18009155 43.49794006 240.84637451 C41.59031122 243.34843295 41.59031122 243.34843295 39.85725403 246.28942871 C34.53237878 254.53692277 34.53237878 254.53692277 29.59141541 256.61302185 C25.97840391 257.29350826 22.47854729 257.62819735 18.80859375 257.84765625 C17.45555763 257.9703196 16.10299075 258.09825751 14.75091553 258.23109436 C11.19422504 258.56799275 7.63564315 258.84092189 4.0723877 259.09777832 C-1.5350043 259.51430565 -7.13450476 260.03439835 -12.73467255 260.53747749 C-14.12169136 260.66085851 -15.50892782 260.78181683 -16.89636993 260.90034294 C-30.60706333 262.07229835 -43.99756428 264.2833325 -57.52252197 266.81484985 C-62.13360175 267.64443551 -66.7615876 268.21853195 -71.41015625 268.796875 C-85.05655947 270.6182077 -98.66422625 272.86004207 -112.140625 275.67578125 C-115.15572562 276.2847061 -118.16767482 276.78738721 -121.20703125 277.2578125 C-126.12858654 278.04605621 -130.93053128 279.14298327 -135.76953125 280.3203125 C-141.9647204 281.82745509 -148.11870494 282.99261747 -154.4375 283.8828125 C-158.45862048 284.49059319 -162.37630478 285.38166554 -166.33203125 286.3203125 C-167.99989043 280.36367256 -168.91372216 274.45300538 -169.74169922 268.32666016 C-170.29056586 264.46163163 -171.00147207 260.63788374 -171.7421875 256.8046875 C-178.62141603 220.63920898 -181.60112306 184.94608121 -181.75823593 148.17405319 C-181.76929825 146.05249694 -181.78707849 143.93109488 -181.80654907 141.80960083 C-182.17567295 97.27902229 -177.08882189 44.09458543 -146.33203125 9.3203125 C-145.59919922 8.3921875 -145.59919922 8.3921875 -144.8515625 7.4453125 C-133.24538575 -7.11930145 -113.8915911 -17.03330872 -95.51245117 -19.47680664 C-63.29596603 -22.47444399 -28.78636882 -14.60865124 0 0 Z " fill="#FEFEFE" transform="translate(816.33203125,456.6796875)"/>
<path d="M0 0 C0.71784668 0.18191895 1.43569336 0.36383789 2.17529297 0.55126953 C12.81664807 3.3172803 22.37070593 7.75069733 32 13 C33.0725 13.57878906 34.145 14.15757812 35.25 14.75390625 C61.13396986 29.27993621 80.64123069 50.74626218 94 77 C94.50144531 77.96292969 95.00289062 78.92585937 95.51953125 79.91796875 C109.89164814 109.34658904 112.25210545 144.54435728 104 176 C103.81808105 176.71784668 103.63616211 177.43569336 103.44873047 178.17529297 C100.6827197 188.81664807 96.24930267 198.37070593 91 208 C90.13181641 209.60875 90.13181641 209.60875 89.24609375 211.25 C83.3584837 221.74114738 76.17281181 230.91847294 68.0625 239.75 C67.49450684 240.37116699 66.92651367 240.99233398 66.34130859 241.63232422 C64.93756883 243.13007008 63.47353242 244.57086382 62 246 C61.34 246 60.68 246 60 246 C60 246.66 60 247.32 60 248 C57.68608903 249.94903671 55.36828363 251.76864779 52.9375 253.5625 C51.85190796 254.3661499 51.85190796 254.3661499 50.74438477 255.18603516 C39.1289444 263.6641821 27.4988635 270.07958535 14 275 C12.28876953 275.67869141 12.28876953 275.67869141 10.54296875 276.37109375 C2.65459165 279.40924584 -5.06854762 281.12847944 -13.3828125 282.421875 C-16.72731686 282.88388617 -16.72731686 282.88388617 -18.83984375 283.52124023 C-49.27606651 290.26688138 -83.96490569 279.12964242 -110 264 C-110.99257813 263.43667969 -111.98515625 262.87335938 -113.0078125 262.29296875 C-141.3243909 245.3277884 -162.73075184 216.08654761 -173 185 C-173.33644531 184.10667969 -173.67289063 183.21335937 -174.01953125 182.29296875 C-183.74467737 155.66719415 -182.13273659 123.84371798 -174 97 C-173.65195312 95.845 -173.30390625 94.69 -172.9453125 93.5 C-169.73165581 83.74821418 -165.05740257 74.89554872 -160 66 C-159.43410156 64.9996875 -158.86820313 63.999375 -158.28515625 62.96875 C-153.43632155 54.90711774 -147.30188289 47.94317858 -141 41 C-140.19691406 40.11183594 -139.39382813 39.22367188 -138.56640625 38.30859375 C-103.61317195 1.58706766 -48.65208326 -12.76343723 0 0 Z " fill="#61DAFB" transform="translate(1060,884)"/>
<path d="M0 0 C9.4181703 -0.11516784 18.78721411 0.04505103 28.19580078 0.49560547 C40.09125191 1.02458741 51.9616674 1.14674948 63.8671875 1.1328125 C65.96778372 1.13348985 68.06837987 1.13446342 70.16897583 1.13571167 C74.53013876 1.13716906 78.89128093 1.13509869 83.25244141 1.13037109 C88.76091084 1.12468137 94.26933185 1.12804555 99.77779961 1.13382244 C120.74462786 1.15237629 141.67004924 1.1454416 162.61477661 0.09700012 C168.40642024 -0.13852924 174.20533228 -0.08605942 180 0 C175.92702007 6.20079231 171.48892106 12.0949207 167 18 C166.21238281 19.03640625 165.42476562 20.0728125 164.61328125 21.140625 C158.19938506 29.52723322 151.61726365 37.77339096 145 46 C143.64507634 47.68689225 142.29081438 49.37431642 140.9375 51.0625 C140.31230469 51.84238281 139.68710938 52.62226562 139.04296875 53.42578125 C137.51359895 55.35284568 135.9964918 57.28696857 134.48828125 59.23046875 C126.30109657 69.76530754 117.65475416 79.85220842 108.84765625 89.87109375 C105.40991974 93.83212208 102.03198079 97.84423406 98.6484375 101.8515625 C98.21112305 102.36750977 97.77380859 102.88345703 97.32324219 103.41503906 C96.40918086 104.5098889 95.50958885 105.61692402 94.62207031 106.73339844 C93.45613499 108.18974988 92.23235511 109.59940528 91 111 C90.34 111 89.68 111 89 111 C87.67018907 109.50890766 86.4130127 107.95293286 85.1875 106.375 C81.45431904 101.69648128 77.54673049 97.28778634 73.4375 92.9375 C68.32314524 87.50133984 63.58707904 81.89087537 59 76 C57.54714503 74.20388809 56.08857013 72.4123914 54.625 70.625 C53.49771484 69.24828125 53.49771484 69.24828125 52.34765625 67.84375 C49.93632466 64.92286914 47.50000007 62.02406112 45.0625 59.125 C41.21706035 54.52113774 37.51318239 49.8267097 33.88208008 45.05371094 C31.21940511 41.56103789 28.50020625 38.12264479 25.73583984 34.70996094 C20.49364292 28.23602862 15.44043536 21.64496183 10.5 14.9375 C9.91250977 14.14005371 9.32501953 13.34260742 8.71972656 12.52099609 C5.7095661 8.40966357 2.7854387 4.26690977 0 0 Z " fill="#FEFEFE" transform="translate(934,1342)"/>
<path d="M0 0 C3 1 3 1 4.24609375 3.1171875 C4.63925781 4.02726562 5.03242187 4.93734375 5.4375 5.875 C5.870625 6.8753125 6.30375 7.875625 6.75 8.90625 C8.24702269 12.61138116 9.58042233 16.35992034 10.90625 20.12890625 C12.10378889 23.27244582 13.49392978 26.27437391 14.9375 29.3125 C17.61801252 34.99006798 19.74059101 40.745652 21.7890625 46.67578125 C22.87173844 49.64790134 24.08136248 52.45770096 25.4375 55.3125 C27.87758437 60.51193211 29.75982618 65.82679804 31.62866211 71.24926758 C33.46420619 76.5509802 35.43975373 81.78180282 37.5 87 C40.63336184 94.96054926 43.54753734 102.981332 46.33007812 111.07080078 C46.97073932 112.91573692 47.63330143 114.75302415 48.296875 116.58984375 C48.67328125 117.65332031 49.0496875 118.71679688 49.4375 119.8125 C49.93056641 121.18341797 49.93056641 121.18341797 50.43359375 122.58203125 C51.04799433 125.20488613 50.73414325 126.46481222 50 129 C36.65120835 132.02292913 23.29590593 134.9999528 9.875 137.6875 C8.93148682 137.87723389 7.98797363 138.06696777 7.01586914 138.26245117 C-7.88697015 141.21428325 -22.87586363 143.66024666 -37.875 146.0625 C-41.06010916 146.57290122 -44.24501287 147.08455073 -47.4296875 147.59765625 C-48.18587875 147.71908997 -48.94207001 147.84052368 -49.72117615 147.96563721 C-53.85643153 148.63470531 -57.97488331 149.35828306 -62.08984375 150.14453125 C-66.62246744 150.98604383 -71.08594124 151.41282438 -75.6875 151.625 C-76.40099609 151.66367188 -77.11449219 151.70234375 -77.84960938 151.7421875 C-79.56608348 151.83434718 -81.28300408 151.9181357 -83 152 C-79.29881291 145.00419561 -75.35146359 138.22315068 -71.125 131.53125 C-69.35933073 128.66709512 -67.74946406 125.7325292 -66.1484375 122.7734375 C-63.10243179 117.14490723 -59.87994388 111.63449342 -56.625 106.125 C-48.46941025 92.23680992 -40.72074461 78.13321613 -33 64 C-32.44924805 62.99275879 -31.89849609 61.98551758 -31.33105469 60.94775391 C-27.54986025 54.02578568 -23.81919996 47.07878461 -20.12255859 40.11132812 C-18.94680837 37.89995625 -17.76439971 35.69221439 -16.58203125 33.484375 C-10.71130524 22.4759061 -5.24724001 11.31832205 0 0 Z " fill="#FDFEFE" transform="translate(1342,1104)"/>
<path d="M0 0 C4.14790823 3.49979757 5.85070791 7.52942247 8 12.375 C11.87738564 20.84801945 16.18935313 29.00703182 20.69946289 37.15795898 C23.39484383 42.03766872 26.00268893 46.9228767 28.4375 51.9375 C31.96089536 59.11256967 35.91971991 66.02434916 39.87939453 72.96606445 C43.77757079 79.80711283 47.57154396 86.6969049 51.3125 93.625 C55.06490943 100.55812717 58.94238603 107.33636545 63.14453125 114.0078125 C65.15667738 117.25266289 67.05864441 120.552111 68.9375 123.875 C71.83724396 128.99406081 74.79413987 134.07487345 77.8125 139.125 C78.18560303 139.7526123 78.55870605 140.38022461 78.94311523 141.02685547 C80.45370885 143.54371206 81.97793901 145.97113972 83.76171875 148.3046875 C85 150 85 150 85 152 C81.66540626 151.67729738 78.33275401 151.34102599 75 151 C74.34580078 150.93554688 73.69160156 150.87109375 73.01757812 150.8046875 C64.29193074 149.93933404 55.70012892 148.87175708 47.09326172 147.17407227 C42.07763627 146.18677824 37.05173487 145.34338586 32 144.5625 C-1.54034715 139.33746458 -1.54034715 139.33746458 -11.1328125 136.71875 C-15.5116229 135.62106456 -19.94885125 134.85504372 -24.39648438 134.08959961 C-28.42037282 133.3769094 -32.13315628 132.29756387 -36 131 C-38.11711125 130.5827591 -40.24280813 130.20667429 -42.375 129.875 C-43.96441406 129.62363281 -43.96441406 129.62363281 -45.5859375 129.3671875 C-46.38257813 129.24601562 -47.17921875 129.12484375 -48 129 C-49.56044357 125.03062166 -48.3745149 122.35057211 -47 118.4375 C-46.7743335 117.78910156 -46.54866699 117.14070313 -46.31616211 116.47265625 C-45.55748137 114.31009737 -44.78052208 112.1547666 -44 110 C-43.72559082 109.23574707 -43.45118164 108.47149414 -43.16845703 107.68408203 C-40.25387469 99.58505063 -37.2460161 91.53471555 -34 83.5625 C-31.65441754 77.78875855 -29.57727848 71.95905901 -27.5625 66.0625 C-25.15535253 59.03403001 -22.47071184 52.22612462 -19.41870117 45.4543457 C-17.37494818 40.91260793 -15.60886937 36.33606272 -13.95703125 31.640625 C-10.03844662 20.82853025 -5.25266433 10.22887264 0 0 Z " fill="#FDFEFE" transform="translate(704,1104)"/>
<path d="M0 0 C-2.78927615 5.4170679 -5.95978867 10.52139157 -9.375 15.5625 C-15.88662411 25.19700767 -21.98817831 35.08576266 -28.1171875 44.96630859 C-29.90757184 47.85107465 -31.70307518 50.73258615 -33.5 53.61328125 C-42.84716024 68.6205149 -51.78577647 83.82856914 -60.53271484 99.19213867 C-63.70605164 104.7595126 -66.92363691 110.29776313 -70.1875 115.8125 C-74.91769543 123.8050634 -79.47959303 131.88728894 -84 140 C-87.45756619 136.85948747 -88.61685129 133.194696 -90.125 128.875 C-90.4243042 128.03880127 -90.7236084 127.20260254 -91.03198242 126.34106445 C-91.68416188 124.51805886 -92.33303151 122.69386661 -92.97900391 120.86865234 C-94.00507087 117.98575257 -95.05216198 115.11133122 -96.10546875 112.23828125 C-103.56037105 91.84521519 -110.50244565 71.26244795 -116.94067383 50.52539062 C-118.13988833 46.67197818 -119.3845329 42.84051046 -120.6953125 39.0234375 C-121.11635254 37.79222168 -121.11635254 37.79222168 -121.54589844 36.53613281 C-122.08152049 34.97847576 -122.62340744 33.42295254 -123.17285156 31.87011719 C-124.45531122 28.13665793 -125.32615307 24.96043019 -125 21 C-105.11214075 16.4534779 -85.12038089 12.3787693 -65 9 C-64.08895508 8.8467627 -63.17791016 8.69352539 -62.23925781 8.53564453 C-57.12017377 7.67631581 -52.0000533 6.82350735 -46.87890625 5.9765625 C-43.25985616 5.37758773 -39.64254633 4.77020237 -36.02734375 4.1484375 C-10.7792433 -0.17988468 -10.7792433 -0.17988468 0 0 Z " fill="#FDFEFE" transform="translate(793,791)"/>
<path d="M0 0 C1.14855469 0.13277344 2.29710937 0.26554688 3.48046875 0.40234375 C5.04942368 0.58121649 6.6184386 0.75956359 8.1875 0.9375 C9.42826294 1.07889404 9.42826294 1.07889404 10.6940918 1.22314453 C15.23401221 1.72958633 19.74977624 2.1282036 24.3125 2.375 C31.98267062 2.90967603 39.44467858 4.52802408 46.97265625 6.0234375 C50.94882505 6.80993243 54.92509043 7.4829843 58.9375 8.0625 C64.23862862 8.84286919 69.42890016 9.9247772 74.66015625 11.078125 C80.46308865 12.33265966 86.29534724 13.44022492 92.125 14.5625 C93.20934326 14.77237549 94.29368652 14.98225098 95.41088867 15.19848633 C101.71484711 16.40749738 108.0252083 17.52561244 114.36376953 18.53833008 C117.96935799 19.16975884 121.46647272 20.04866573 125 21 C124.47633769 28.85493458 121.86533705 35.91654546 119.3125 43.3125 C118.62277363 45.3387628 117.93593722 47.36598896 117.24942017 49.39334106 C116.79561158 50.73335483 116.34100666 52.07309918 115.8855896 53.41256714 C114.10071875 58.6698246 112.39866028 63.94870445 110.75 69.25 C106.6635528 82.31557892 102.33947503 95.26348566 97.53979492 108.08569336 C95.69193314 113.04255823 93.98870927 118.02514513 92.375 123.0625 C90.42929389 129.02243699 88.03220117 134.51623192 85 140 C82.69864502 137.87369864 81.19930017 135.82744576 79.72265625 133.0703125 C79.29807129 132.2860791 78.87348633 131.5018457 78.43603516 130.69384766 C77.98276855 129.84612793 77.52950195 128.9984082 77.0625 128.125 C76.07302927 126.30131506 75.0820969 124.47842254 74.08984375 122.65625 C73.57921387 121.7178125 73.06858398 120.779375 72.54248047 119.8125 C64.05585379 104.33830891 55.02660951 89.16293892 46 74 C45.23405518 72.70980957 45.23405518 72.70980957 44.45263672 71.39355469 C38.08377832 60.67028876 31.56892102 50.05466037 24.875 39.53125 C22.5970433 35.94986353 20.34859429 32.35134485 18.11181641 28.74414062 C13.94624233 22.02791301 9.66531795 15.40665805 5.22216797 8.87011719 C3.27564922 5.9922383 1.442088 3.16632365 0 0 Z " fill="#FDFEFE" transform="translate(1255,791)"/>
<path d="M0 0 C4.08117747 1.61688654 6.80630492 4.54262085 9.8125 7.625 C10.3494751 8.16914551 10.8864502 8.71329102 11.43969727 9.27392578 C14.75930645 12.66128209 17.94891155 16.12609189 21.0234375 19.73828125 C24.32448032 23.51556147 27.77355665 27.15694995 31.20678711 30.81396484 C33.97801405 33.77728199 36.71850039 36.76574993 39.40234375 39.80859375 C39.90113037 40.37247803 40.39991699 40.9363623 40.91381836 41.51733398 C42 43 42 43 42 45 C42.66 45 43.32 45 44 45 C45.41438406 46.57286684 46.75604401 48.21139996 48.0625 49.875 C51.12839758 53.71228527 54.24537654 57.44015511 57.5625 61.0625 C61.19373793 65.05245641 64.60405511 69.16161043 67.9375 73.40234375 C70.9890584 77.24568909 74.15417025 80.9941484 77.3125 84.75 C79 87 79 87 79 89 C27.52 89 -23.96 89 -77 89 C-75.20964822 85.41929644 -73.47754103 82.97927753 -70.9375 79.9375 C-70.12667969 78.96167969 -69.31585937 77.98585938 -68.48046875 76.98046875 C-67.25263672 75.50513672 -67.25263672 75.50513672 -66 74 C-64.58243891 72.25072443 -63.1657631 70.50073108 -61.75 68.75 C-57.05124249 63.00525821 -52.18922286 57.40973468 -47.3125 51.81640625 C-45.21001352 49.40232737 -43.12541791 46.97531171 -41.0625 44.52734375 C-34.82972999 37.14180768 -28.36586508 30.02854542 -21.6940918 23.03564453 C-17.89086261 19.0445363 -14.21182065 14.97717922 -10.6003418 10.81201172 C-8.51122725 8.4465795 -6.31085815 6.21376802 -4.0625 4 C-3.29035156 3.236875 -2.51820313 2.47375 -1.72265625 1.6875 C-1.15417969 1.130625 -0.58570313 0.57375 0 0 Z " fill="#FDFEFE" transform="translate(1023,616)"/>
</svg>
