<svg width="201" height="129" viewBox="0 0 201 129" fill="none" xmlns="http://www.w3.org/2000/svg">
<path d="M108.704 101.96C110.411 106.739 112.288 110.579 114.336 113.48C116.384 116.211 119.541 119.198 123.808 122.44L121.504 125H75.168L73.632 120.392L77.472 119.368C80.032 118.515 81.824 117.491 82.848 116.296C84.0426 114.931 84.64 113.139 84.64 110.92C84.64 109.555 83.7013 106.056 81.824 100.424L76.704 85.3205H37.024L34.976 91.7205C32.416 99.4005 31.136 105.203 31.136 109.128C31.136 112.883 31.8186 116.296 33.184 119.368L34.976 122.44L32.672 125H4.51197L2.71997 120.392L6.55997 119.368C10.656 118.174 13.728 116.552 15.776 114.504C17.824 112.286 19.7866 108.446 21.664 102.984L47.776 27.7205C48.9706 23.4538 49.568 20.4671 49.568 18.7605C49.568 15.0058 46.8373 12.3605 41.376 10.8245L38.56 10.0565L40.352 5.44849H75.168L108.704 101.96ZM74.144 78.1525L56.736 26.1845L39.584 78.1525H74.144Z" fill="#6F6F6F"/>
<path d="M197.96 115.492C191.816 122.831 183.795 126.5 173.896 126.5C167.752 126.5 162.888 125.135 159.304 122.404C155.891 119.503 152.904 114.639 150.344 107.812L142.92 85.284C141.213 80.676 139.677 77.348 138.312 75.3C136.947 73.0813 134.813 71.3747 131.912 70.18L121.5 67L122.012 64.44C123.377 64.6107 131.229 65.572 133.448 65.572C135.496 65.572 136.947 65.4867 137.8 65.316C144.115 64.292 149.064 61.3907 152.648 56.612C156.232 51.8333 158.024 45.6893 158.024 38.18C158.024 29.1347 155.891 21.9667 151.624 16.676C147.357 11.2147 141.725 8.48399 134.728 8.48399C127.048 8.48399 123.208 12.068 123.208 19.236V90.66C123.208 97.316 123.72 102.692 124.744 106.788C125.939 110.713 127.987 114.639 130.888 118.564L132.936 121.636L130.888 125H75.168C75.168 125 74.3146 122.44 73.632 120.392C77.8986 119.198 91.8906 117.284 93.768 116.26C95.6453 115.065 96.9253 113.529 97.608 111.652C98.2907 109.775 98.632 106.873 98.632 102.948V34.852C98.632 28.8787 95.5 23 83.5 20.5C55 16 50.5 13.5 38.56 10.0565L40.352 5.44849H52C60.5 5 100.68 5.15599 108.872 4.132C117.235 2.93733 124.659 2.34 131.144 2.34C147.357 2.34 160.157 5.58266 169.544 12.068C178.931 18.5533 183.624 27.428 183.624 38.692C183.624 46.5427 181.064 53.54 175.944 59.684C170.995 65.6573 164.595 69.668 156.744 71.716C162.888 74.4467 167.155 79.0547 169.544 85.54L178.504 110.628C179.869 114.724 182.515 116.772 186.44 116.772C189.512 116.772 192.669 115.407 195.912 112.676L197.96 115.492Z" fill="#12154F"/>
<path d="M38.5532 10.0538L38.2829 11.0173C40.0785 11.5352 41.7073 12.0323 43.2766 12.5185C44.8111 13.1364 45.9825 13.8633 46.8242 14.6787C47.9978 15.8157 48.568 17.1577 48.568 18.7605C48.568 20.3087 48.0126 23.1625 46.8212 27.4216L20.7192 102.657L20.7183 102.659C18.8568 108.075 16.953 111.747 15.0547 113.812C13.17 115.689 10.2808 117.24 6.29097 118.405L2.46231 119.426L1.38317 119.714L1.78797 120.755L3.57997 125.363L3.8279 126H4.51197H32.672H33.1173L33.4153 125.669L35.7193 123.109L36.2075 122.567L35.8398 121.937L34.0758 118.913C32.7882 115.995 32.136 112.739 32.136 109.128C32.136 105.373 33.3705 99.6993 35.9247 92.0367L35.9247 92.0367L35.9284 92.0253L37.7539 86.3205H75.9871L80.8753 100.741C80.8755 100.741 80.8758 100.742 80.876 100.743C81.8114 103.549 82.5083 105.81 82.9701 107.532C83.4422 109.291 83.64 110.387 83.64 110.92C83.64 112.953 83.097 114.493 82.0954 115.638L82.0887 115.646C81.2428 116.633 79.664 117.58 77.1844 118.41L73.7974 119.313C73.6435 119.353 73.4982 119.391 73.3623 119.429L72.3513 119.713L72.6833 120.709L73.7073 123.781L74.0753 124.885L74.1813 125.203L74.2095 125.287L74.2168 125.309L74.2187 125.315L74.2189 125.316L74.2191 125.316L74.2193 125.317L74.2193 125.317L74.4472 126H75.168H121.504H121.949H130.888H131.45L131.742 125.52L133.79 122.156L134.122 121.612L133.768 121.081L131.72 118.009L131.707 117.989L131.692 117.97C128.852 114.127 126.865 110.311 125.708 106.521C124.716 102.539 124.208 97.2619 124.208 90.66V68.8727L131.574 71.1224C134.298 72.2523 136.233 73.8301 137.46 75.8241L137.47 75.8396L137.48 75.8547C138.776 77.7992 140.278 81.0311 141.976 85.6143L149.394 108.125L149.401 108.144L149.408 108.163C151.994 115.06 155.056 120.106 158.656 123.166L158.677 123.183L158.698 123.199C162.51 126.104 167.612 127.5 173.896 127.5C184.079 127.5 192.385 123.708 198.727 116.134L199.228 115.535L198.769 114.904L196.721 112.088L196.089 111.219L195.268 111.911C192.137 114.547 189.2 115.772 186.44 115.772C184.659 115.772 183.242 115.311 182.124 114.445C180.998 113.573 180.091 112.226 179.453 110.312L179.449 110.302L179.446 110.292L170.486 85.2036L170.482 85.1943C168.313 79.3058 164.633 74.8818 159.461 71.9625C166.395 69.7054 172.154 65.8252 176.714 60.3224C176.714 60.3223 176.714 60.3222 176.714 60.322L175.944 59.684M38.5532 10.0538L108.739 3.14079M38.5532 10.0538L37.628 9.69403L39.42 5.08604L40.352 5.44849L38.8231 9.09172L38.5532 10.0538ZM175.944 59.684C181.064 53.54 183.624 46.5427 183.624 38.692C183.624 27.428 178.931 18.5533 169.544 12.068C160.157 5.58266 147.357 2.34 131.144 2.34C124.659 2.34 117.235 2.93733 108.872 4.132M175.944 59.684C171.308 65.2793 165.399 69.1525 158.217 71.3036L175.944 59.684ZM108.872 4.132L108.748 3.13972C108.745 3.14008 108.742 3.14043 108.739 3.14079M108.872 4.132L108.731 3.14205C108.733 3.14163 108.736 3.14121 108.739 3.14079M108.872 4.132C104.272 4.70694 89.5889 4.90989 76.0905 5.05671L75.8792 4.44849H75.168H52H51.9738C55.2616 4.2768 63.1561 4.19352 72.0899 4.09927C74.8426 4.07024 77.6939 4.04016 80.5395 4.00613C92.7 3.86072 104.707 3.64306 108.739 3.14079M127.518 64.0758C126.328 63.9466 125.163 63.8122 124.208 63.6991V19.236C124.208 15.8245 125.119 13.4447 126.77 11.903C128.435 10.3493 131.026 9.48399 134.728 9.48399C141.421 9.48399 146.761 12.0756 150.836 17.2916L150.841 17.2977L150.846 17.3037C154.928 22.3654 157.024 29.2873 157.024 38.18C157.024 45.5293 155.272 51.4467 151.848 56.012C148.431 60.5681 143.719 63.3431 137.64 64.3289L137.622 64.3318L137.604 64.3354C136.857 64.4848 135.494 64.572 133.448 64.572C132.405 64.572 129.949 64.3397 127.518 64.0758ZM97.632 34.852V67.0502L81.7096 21.2277C82.2377 21.3124 82.7744 21.3978 83.3197 21.4839C89.1799 22.7082 92.7331 24.7278 94.8237 27.0436C96.9023 29.346 97.632 32.0486 97.632 34.852ZM40.9671 77.1525L56.743 29.3538L72.7544 77.1525H40.9671Z" stroke="black" stroke-width="2"/>
</svg>
