<svg width="206" height="172" viewBox="0 0 206 172" fill="none" xmlns="http://www.w3.org/2000/svg">
<path d="M108.959 136.796C110.665 143.262 112.542 148.458 114.589 152.383C116.637 156.078 119.793 160.119 124.059 164.507L121.755 167.971H75.4306L73.895 161.736L77.7341 160.35C80.2934 159.196 82.085 157.81 83.1088 156.194C84.3031 154.346 84.9003 151.921 84.9003 148.919C84.9003 147.072 83.9619 142.338 82.085 134.717L76.9662 114.28H37.2958L35.2483 122.94C32.6889 133.332 31.4092 141.183 31.4092 146.495C31.4092 151.575 32.0917 156.194 33.4567 160.35L35.2483 164.507L32.9448 167.971H4.79157L3 161.736L6.83908 160.35C10.9341 158.734 14.0054 156.54 16.0529 153.769C18.1004 150.767 20.0626 145.571 21.9395 138.181L48.0452 36.3422C49.2396 30.569 49.8368 26.5277 49.8368 24.2184C49.8368 19.138 47.1067 15.5587 41.6467 13.4803L38.8314 12.4411L40.623 6.20608H75.4306L87.0678 38.7502L91.2588 71.2242L108.959 136.796ZM74.4069 104.581L57.003 34.2638L39.8552 104.581H74.4069Z" fill="#6F6F6F"/>
<path d="M203 155.105C196.857 165.035 188.838 170 178.942 170C172.799 170 167.936 168.153 164.353 164.458C160.941 160.532 157.955 153.951 155.395 144.713L147.973 114.231C146.267 107.996 144.731 103.493 143.366 100.722C142.001 97.7196 139.868 95.4103 136.968 93.7938L126.558 89.491L127.07 86.0271C128.435 86.258 136.285 87.5588 138.503 87.5588C140.551 87.5588 142.001 87.4433 142.854 87.2124C149.168 85.8268 154.116 81.901 157.699 75.4351C161.282 68.9691 163.074 60.6557 163.074 50.4949C163.074 38.2557 160.941 28.5567 156.675 21.3979C152.409 14.0082 146.779 10.3134 139.783 10.3134C132.105 10.3134 128.266 15.1629 128.266 24.8619V121.505C128.266 130.511 128.778 137.786 129.802 143.328C130.996 148.639 133.043 153.951 135.944 159.262L137.992 163.419L135.944 167.971H75.4306C75.4306 167.971 74.5775 164.507 73.895 161.736C78.1606 160.119 96.9561 157.53 98.833 156.144C100.71 154.528 101.99 152.449 102.672 149.909C103.355 147.369 103.696 143.443 103.696 138.132L91.2588 71.2242C81.1493 31.848 85.9874 28.6018 74.071 21.3979C45.5778 15.309 50.7686 17.1005 38.8314 12.4411L40.623 6.20608H57.075C65.573 5.59923 98.2292 2 108.563 2C118.896 2 129.716 2 136.2 2C152.409 2 165.206 6.38763 174.591 15.1629C183.975 23.9381 188.667 35.9464 188.667 51.1876C188.667 61.8103 186.108 71.2784 180.989 79.5918C176.041 87.6742 169.643 93.101 161.794 95.8722C167.936 99.567 172.202 105.802 174.591 114.577L183.549 148.524C184.914 154.066 187.558 156.837 191.483 156.837C194.554 156.837 197.711 154.99 200.952 151.295L203 155.105Z" fill="#12154F"/>
<path d="M39.9984 13.9711C41.0502 14.3827 41.9558 14.7371 42.7663 15.0485C44.6204 15.9457 46.0155 17.047 46.9941 18.33C48.2093 19.9234 48.8368 21.8678 48.8368 24.2184C48.8368 26.4099 48.2628 30.3511 47.0707 36.1167L20.9708 137.933L20.9702 137.935C19.101 145.295 17.1761 150.339 15.2373 153.19C13.3303 155.764 10.4394 157.852 6.48573 159.415L2.66052 160.795L1.78052 161.113L2.03889 162.012L3.83046 168.247L4.03845 168.971H4.79157H32.9448H33.4807L33.7775 168.525L36.081 165.061L36.3812 164.609L36.1666 164.111L34.3929 159.996C33.075 155.966 32.4092 151.468 32.4092 146.495C32.4092 141.31 33.6638 133.555 36.2193 123.179L36.2214 123.17L38.0869 115.28H76.1858L81.114 134.957C81.1142 134.957 81.1144 134.958 81.1146 134.959C82.051 138.761 82.7507 141.833 83.2156 144.178C83.6861 146.551 83.9003 148.107 83.9003 148.919C83.9003 151.797 83.3271 154.014 82.269 155.651L82.2639 155.659C81.3872 157.043 79.7979 158.317 77.3577 159.423L73.8053 160.705C73.7125 160.737 73.6242 160.769 73.5406 160.801L72.7121 161.115L72.924 161.975L73.9477 166.132L74.3157 167.626L74.4216 168.056L74.4499 168.171L74.4572 168.2L74.459 168.208L74.4595 168.21L74.4595 168.21L74.4596 168.21L74.4596 168.21L74.647 168.971H75.4306H121.755H122.291H135.944H136.591L136.856 168.381L138.904 163.829L139.097 163.399L138.889 162.977L136.841 158.82L136.832 158.801L136.822 158.783C133.964 153.55 131.954 148.332 130.781 143.127C129.776 137.672 129.266 130.471 129.266 121.505V91.6922L136.531 94.6954C139.221 96.2071 141.188 98.3468 142.456 101.136L142.462 101.15L142.469 101.164C143.789 103.842 145.303 108.263 147.005 114.481L154.424 144.95L154.428 144.965L154.432 144.98C157.003 154.26 160.037 161.017 163.599 165.114L163.616 165.134L163.635 165.154C167.443 169.08 172.585 171 178.942 171C189.252 171 197.564 165.794 203.85 155.631L204.154 155.14L203.881 154.632L201.833 150.822L201.151 149.552L200.201 150.635C197.037 154.241 194.131 155.837 191.483 155.837C189.786 155.837 188.408 155.251 187.279 154.068C186.122 152.856 185.179 150.963 184.52 148.285L184.518 148.277L184.516 148.269L175.558 114.322L175.556 114.315C173.335 106.156 169.492 100.047 163.971 96.1056C171.225 93.0794 177.18 87.7288 181.841 80.1161C187.065 71.6312 189.667 61.9786 189.667 51.1876C189.667 35.7255 184.898 23.4319 175.274 14.4325C165.659 5.44192 152.594 1 136.2 1H136.162H136.124H136.086H136.047H136.009H135.97H135.932H135.893H135.854H135.815H135.776H135.737H135.698H135.659H135.619H135.58H135.54H135.5H135.461H135.421H135.381H135.341H135.3H135.26H135.22H135.179H135.139H135.098H135.057H135.017H134.976H134.935H134.894H134.852H134.811H134.77H134.728H134.687H134.645H134.603H134.561H134.52H134.478H134.435H134.393H134.351H134.309H134.266H134.224H134.181H134.138H134.095H134.052H134.009H133.966H133.923H133.88H133.837H133.793H133.75H133.706H133.662H133.619H133.575H133.531H133.487H133.443H133.398H133.354H133.31H133.265H133.221H133.176H133.132H133.087H133.042H132.997H132.952H132.907H132.862H132.816H132.771H132.725H132.68H132.634H132.589H132.543H132.497H132.451H132.405H132.359H132.313H132.267H132.22H132.174H132.127H132.081H132.034H131.987H131.941H131.894H131.847H131.8H131.753H131.705H131.658H131.611H131.563H131.516H131.468H131.421H131.373H131.325H131.277H131.229H131.181H131.133H131.085H131.037H130.989H130.94H130.892H130.843H130.795H130.746H130.697H130.648H130.6H130.551H130.502H130.452H130.403H130.354H130.305H130.255H130.206H130.156H130.107H130.057H130.007H129.957H129.908H129.858H129.808H129.758H129.707H129.657H129.607H129.557H129.506H129.456H129.405H129.354H129.304H129.253H129.202H129.151H129.1H129.049H128.998H128.947H128.896H128.845H128.793H128.742H128.69H128.639H128.587H128.536H128.484H128.432H128.38H128.328H128.276H128.224H128.172H128.12H128.068H128.016H127.963H127.911H127.859H127.806H127.753H127.701H127.648H127.595H127.543H127.49H127.437H127.384H127.331H127.278H127.224H127.171H127.118H127.065H127.011H126.958H126.904H126.851H126.797H126.743H126.69H126.636H126.582H126.528H126.474H126.42H126.366H126.312H126.258H126.204H126.15H126.095H126.041H125.986H125.932H125.877H125.823H125.768H125.713H125.659H125.604H125.549H125.494H125.439H125.384H125.329H125.274H125.219H125.164H125.109H125.053H124.998H124.943H124.887H124.832H124.776H124.721H124.665H124.609H124.554H124.498H124.442H124.386H124.33H124.274H124.218H124.162H124.106H124.05H123.994H123.938H123.881H123.825H123.769H123.712H123.656H123.599H123.543H123.486H123.43H123.373H123.316H123.259H123.203H123.146H123.089H123.032H122.975H122.918H122.861H122.804H122.747H122.69H122.633H122.575H122.518H122.461H122.403H122.346H122.289H122.231H122.174H122.116H122.059H122.001H121.943H121.886H121.828H121.77H121.712H121.654H121.597H121.539H121.481H121.423H121.365H121.307H121.249H121.191H121.132H121.074H121.016H120.958H120.899H120.841H120.783H120.724H120.666H120.608H120.549H120.491H120.432H120.373H120.315H120.256H120.198H120.139H120.08H120.021H119.963H119.904H119.845H119.786H119.727H119.668H119.609H119.55H119.491H119.432H119.373H119.314H119.255H119.196H119.137H119.077H119.018H118.959H118.9H118.84H118.781H118.721H118.662H118.603H118.543H118.484H118.424H118.365H118.305H118.246H118.186H118.127H118.067H118.007H117.948H117.888H117.828H117.768H117.709H117.649H117.589H117.529H117.469H117.41H117.35H117.29H117.23H117.17H117.11H117.05H116.99H116.93H116.87H116.81H116.75H116.69H116.63H116.569H116.509H116.449H116.389H116.329H116.268H116.208H116.148H116.088H116.027H115.967H115.907H115.847H115.786H115.726H115.665H115.605H115.545H115.484H115.424H115.363H115.303H115.242H115.182H115.122H115.061H115.001H114.94H114.879H114.819H114.758H114.698H114.637H114.577H114.516H114.455H114.395H114.334H114.274H114.213H114.152H114.092H114.031H113.97H113.91H113.849H113.788H113.727H113.667H113.606H113.545H113.484H113.424H113.363H113.302H113.241H113.181H113.12H113.059H112.998H112.938H112.877H112.816H112.755H112.694H112.634H112.573H112.512H112.451H112.39H112.329H112.269H112.208H112.147H112.086H112.025H111.965H111.904H111.843H111.782H111.721H111.66H111.599H111.539H111.478H111.417H111.356H111.295H111.235H111.174H111.113H111.052H110.991H110.93H110.87H110.809H110.748H110.687H110.626H110.566H110.505H110.444H110.383H110.322H110.262H110.201H110.14H110.079H110.019H109.958H109.897H109.836H109.776H109.715H109.654H109.593H109.533H109.472H109.411H109.351H109.29H109.229H109.169H109.108H109.047H108.987H108.926H108.866H108.805H108.744H108.684H108.623H108.563C103.339 1 92.5378 1.90578 82.0382 2.87975C78.1356 3.24175 74.2717 3.61349 70.7377 3.95347C64.7535 4.52918 59.7157 5.01385 57.0393 5.20608H40.623V6.20608L39.6619 5.92991L37.8703 12.165L38.8225 12.4385L38.4678 13.3727C39.0114 13.5849 39.52 13.7839 39.9984 13.9711ZM132.612 85.8901C131.407 85.713 130.227 85.5286 129.266 85.3743V24.8619C129.266 20.1174 130.209 16.7437 131.929 14.5712C133.614 12.4432 136.168 11.3134 139.783 11.3134C146.338 11.3134 151.676 14.7378 155.809 21.8979L155.816 21.9098C159.956 28.8576 162.074 38.3568 162.074 50.4949C162.074 60.5466 160.3 68.6779 156.824 74.9504C153.358 81.2051 148.631 84.9208 142.64 86.2356L142.616 86.2408L142.593 86.2471C141.88 86.4401 140.548 86.5588 138.503 86.5588C137.484 86.5588 135.05 86.2482 132.612 85.8901ZM41.1283 103.581L57.0102 38.4551L73.1292 103.581H41.1283Z" stroke="black" stroke-width="2"/>
</svg>
